<svg width="276" height="171" viewBox="0 0 276 171" fill="none" xmlns="http://www.w3.org/2000/svg">
<g clip-path="url(#clip0_47_83)">
<path d="M239.841 134.087C239.78 134.009 239.719 133.931 239.659 133.853C239.598 133.775 239.538 133.696 239.478 133.617C239.418 133.539 239.358 133.46 239.299 133.381C239.239 133.302 239.18 133.222 239.121 133.143C239.023 130.851 239.021 128.58 239.117 126.329C239.211 124.094 239.4 121.886 239.685 119.704C239.966 117.539 240.339 115.408 240.803 113.31C241.263 111.228 241.812 109.185 242.449 107.181C242.522 106.95 242.595 106.72 242.671 106.491C242.746 106.262 242.823 106.034 242.901 105.808C242.978 105.581 243.057 105.355 243.138 105.13C243.218 104.904 243.299 104.68 243.382 104.456C243.996 102.784 244.671 101.152 245.408 99.5606C246.14 97.9807 246.931 96.4444 247.78 94.9519C248.623 93.4698 249.521 92.0334 250.476 90.6427C251.423 89.2624 252.423 87.9302 253.476 86.6464L253.642 86.445L253.808 86.2447L253.975 86.0454L254.143 85.8473L254.264 85.705L254.385 85.5633C254.426 85.5163 254.467 85.4694 254.509 85.4227C254.55 85.376 254.592 85.3298 254.634 85.2842L254.734 85.2294L254.833 85.1752L254.932 85.1211L255.031 85.0671L255.037 85.0651L255.043 85.0621L255.05 85.0592L255.056 85.0569L255.096 85.0351L255.135 85.0131L255.173 84.9911L255.211 84.9691L255.383 84.8769L255.554 84.7861L255.726 84.6956L255.896 84.6042L255.766 84.5392L255.44 84.3772L255.442 84.3758C255.47 84.3878 255.498 84.4004 255.526 84.4137C255.553 84.427 255.581 84.4398 255.609 84.4521C255.637 84.4652 255.664 84.4782 255.691 84.4911C255.719 84.5041 255.746 84.5173 255.774 84.531L255.805 84.5444L255.837 84.558L255.869 84.5718C255.88 84.5761 255.891 84.5812 255.901 84.5871C255.91 84.5919 255.919 84.5959 255.929 84.5991L255.957 84.6111L255.985 84.623L256.013 84.635C257.199 85.1787 258.389 85.7306 259.563 86.3094C260.738 86.8882 261.894 87.4915 263.019 88.1407C264.141 88.7849 265.228 89.4876 266.276 90.246C267.321 91.0005 268.31 91.8297 269.236 92.727C270.212 93.681 271.086 94.735 271.842 95.8718C272.59 96.9886 273.204 98.1888 273.674 99.448C274.126 100.647 274.395 101.906 274.472 103.185C274.547 104.415 274.374 105.647 273.964 106.809C273.908 106.96 273.848 107.11 273.784 107.257C273.72 107.404 273.651 107.549 273.579 107.692C273.506 107.835 273.429 107.975 273.347 108.113C273.266 108.25 273.181 108.386 273.091 108.518C273.054 108.574 273.016 108.629 272.977 108.683C272.938 108.737 272.899 108.791 272.859 108.844C272.819 108.898 272.778 108.951 272.737 109.004C272.696 109.057 272.655 109.109 272.613 109.161C271.836 110.138 270.848 110.927 269.724 111.469C268.593 112.009 267.364 112.313 266.112 112.364C264.797 112.419 263.482 112.228 262.236 111.802C260.9 111.346 259.658 110.649 258.573 109.747C258.197 109.437 257.842 109.104 257.508 108.75C257.177 108.399 256.868 108.027 256.583 107.638C256.301 107.252 256.043 106.849 255.811 106.431C255.581 106.016 255.378 105.586 255.204 105.145C255.122 106.516 255.335 107.889 255.828 109.171C256.349 110.518 257.056 111.786 257.93 112.937C258.853 114.162 259.877 115.308 260.991 116.362C262.113 117.437 263.305 118.446 264.482 119.374C265.659 120.303 266.878 121.252 268.057 122.243C269.236 123.216 270.358 124.256 271.418 125.358C272.446 126.422 273.355 127.595 274.13 128.856C274.891 130.1 275.441 131.462 275.758 132.886C276.097 134.436 276.08 136.044 275.708 137.587C275.526 138.338 275.269 139.068 274.938 139.766C274.605 140.47 274.205 141.14 273.745 141.769L273.702 141.826L273.659 141.883L273.615 141.94L273.57 141.997C272.448 143.464 271.038 144.687 269.428 145.593C268.617 146.048 267.763 146.421 266.878 146.706C265.971 146.998 265.038 147.199 264.092 147.306C262.293 147.471 260.478 147.368 258.709 146.997C256.888 146.616 255.117 146.024 253.432 145.232C251.691 144.417 250.026 143.448 248.458 142.335C246.877 141.216 245.38 139.982 243.978 138.644C243.606 138.289 243.241 137.928 242.882 137.56C242.523 137.193 242.171 136.819 241.826 136.439C241.48 136.059 241.142 135.673 240.812 135.281C240.482 134.889 240.158 134.491 239.841 134.087Z" fill="#F2F2F2"/>
<path d="M268.776 107.537C267.664 106.96 266.594 106.304 265.576 105.574C263.541 104.116 261.724 102.377 260.178 100.409C259.411 99.4329 258.716 98.4018 258.1 97.3244C257.585 96.4142 257.128 95.4725 256.732 94.5049C256.345 93.5609 256.02 92.5928 255.759 91.6068C255.503 90.6437 255.313 89.6645 255.189 88.6758C255.067 87.7074 255.014 86.7316 255.029 85.7557C255.03 85.7006 255.032 85.646 255.033 85.5917C255.034 85.5374 255.035 85.4827 255.036 85.4277C255.038 85.3726 255.04 85.3183 255.043 85.2647L255.051 85.1025C255.004 85.1393 254.958 85.1765 254.911 85.214L254.772 85.3272L254.633 85.4413L254.495 85.5556L254.407 85.629L254.318 85.703L254.229 85.7775L254.142 85.8521L254.262 85.7102L254.386 85.5637C254.427 85.5166 254.468 85.4697 254.509 85.4231C254.55 85.3764 254.592 85.3302 254.635 85.2845L254.735 85.2298L254.834 85.1755L254.931 85.1215L255.03 85.0676L255.036 85.0656L255.042 85.0626L255.048 85.0596L255.055 85.0574L255.094 85.0356L255.134 85.0137L255.172 84.9917L255.21 84.9697L255.382 84.8775L255.553 84.7867L255.725 84.6962L255.896 84.6054L255.762 84.5389L255.436 84.3766L255.439 84.3752C255.467 84.3872 255.494 84.3998 255.522 84.4131C255.549 84.4264 255.577 84.4392 255.605 84.4515C255.633 84.4646 255.66 84.4776 255.687 84.4905C255.715 84.5035 255.742 84.5168 255.77 84.5304L255.801 84.5438L255.833 84.5574L255.865 84.5712C255.876 84.5754 255.886 84.5805 255.896 84.5864L255.893 84.6382L255.89 84.6866L255.887 84.7348L255.884 84.7837C255.764 86.4275 255.85 88.0799 256.139 89.7025C256.437 91.3727 256.926 93.0032 257.596 94.562C258.288 96.1754 259.153 97.7089 260.177 99.1356C261.234 100.611 262.445 101.97 263.79 103.19C265.144 104.4 266.621 105.466 268.197 106.369C268.975 106.815 269.776 107.219 270.597 107.58C271.411 107.937 272.244 108.25 273.092 108.517C273.055 108.573 273.017 108.628 272.978 108.682C272.939 108.736 272.9 108.79 272.86 108.843C272.82 108.897 272.779 108.95 272.738 109.003C272.697 109.056 272.656 109.108 272.614 109.16C272.287 109.052 271.962 108.937 271.638 108.815C271.314 108.693 270.992 108.564 270.672 108.428C270.352 108.293 270.034 108.151 269.718 108.002C269.402 107.853 269.088 107.698 268.776 107.537Z" fill="white"/>
<path d="M246.759 119.822C246.395 119.279 246.051 118.725 245.728 118.161C245.405 117.598 245.103 117.026 244.822 116.446C244.541 115.867 244.281 115.28 244.043 114.686C243.805 114.091 243.59 113.492 243.396 112.887C243.298 112.567 243.207 112.245 243.123 111.922C243.04 111.599 242.965 111.275 242.897 110.951C242.829 110.627 242.769 110.303 242.717 109.977C242.664 109.652 242.62 109.327 242.584 109.002C242.566 108.85 242.549 108.699 242.534 108.547C242.52 108.395 242.507 108.243 242.496 108.091C242.484 107.939 242.475 107.787 242.467 107.636C242.459 107.484 242.453 107.333 242.448 107.182C242.52 106.951 242.594 106.721 242.669 106.492C242.745 106.263 242.821 106.034 242.899 105.807C242.976 105.58 243.055 105.354 243.136 105.128C243.216 104.903 243.298 104.679 243.381 104.455C243.363 104.643 243.347 104.83 243.335 105.019C243.322 105.207 243.311 105.396 243.304 105.585C243.296 105.774 243.291 105.964 243.289 106.154C243.287 106.345 243.287 106.535 243.29 106.726C243.29 106.831 243.291 106.935 243.293 107.039C243.295 107.143 243.298 107.247 243.301 107.351C243.305 107.455 243.31 107.559 243.315 107.663C243.32 107.767 243.327 107.872 243.334 107.976C243.414 109.144 243.597 110.303 243.881 111.439C244.169 112.588 244.545 113.714 245.005 114.806C245.474 115.92 246.015 117.001 246.624 118.044C247.244 119.106 247.921 120.132 248.653 121.119C249.441 122.185 250.274 123.222 251.153 124.232C252.031 125.241 252.942 126.223 253.887 127.177C254.832 128.13 255.805 129.054 256.806 129.948C257.807 130.843 258.825 131.706 259.86 132.538C260.919 133.393 261.999 134.215 263.102 135.005C264.204 135.795 265.324 136.55 266.462 137.271C267.6 137.991 268.754 138.676 269.926 139.326C271.098 139.976 272.283 140.589 273.482 141.165C273.537 141.192 273.586 141.229 273.628 141.273C273.669 141.317 273.702 141.367 273.726 141.422C273.75 141.477 273.764 141.535 273.767 141.594C273.771 141.653 273.763 141.713 273.744 141.77C273.738 141.794 273.73 141.818 273.719 141.84C273.708 141.862 273.695 141.883 273.68 141.903C273.666 141.922 273.649 141.94 273.631 141.956C273.612 141.971 273.592 141.985 273.571 141.997C273.548 142.007 273.525 142.014 273.5 142.019C273.476 142.023 273.451 142.024 273.427 142.022C273.401 142.021 273.376 142.016 273.352 142.009C273.327 142.001 273.303 141.991 273.281 141.978C273.132 141.907 272.984 141.836 272.836 141.764C272.689 141.692 272.541 141.62 272.394 141.548C272.246 141.475 272.099 141.402 271.952 141.329C271.805 141.255 271.658 141.18 271.511 141.104C270.29 140.477 269.085 139.812 267.896 139.109C266.707 138.407 265.536 137.668 264.383 136.892C263.231 136.116 262.099 135.306 260.988 134.461C259.877 133.616 258.789 132.737 257.725 131.824C256.697 130.946 255.683 130.038 254.692 129.099C253.701 128.16 252.736 127.191 251.806 126.191C250.877 125.191 249.984 124.16 249.138 123.099C248.293 122.037 247.496 120.945 246.759 119.822Z" fill="white"/>
<path d="M269.768 32.5632L268.893 32.6769L274.759 10.6655C275.191 9.19573 275.262 7.64324 274.964 6.1404C274.706 4.91244 274.068 3.79692 273.14 2.95213C272.168 2.10745 270.977 1.55477 269.704 1.35785C268.154 1.11785 266.571 1.18868 265.049 1.56623L225.182 10.6433C223.79 10.9808 222.458 11.5286 221.232 12.2677C219.898 13.0606 218.658 14.0008 217.534 15.0706C216.378 16.1615 215.341 17.3713 214.439 18.6799C213.558 19.9465 212.839 21.3189 212.301 22.7648L170.588 137.469C169.894 139.355 169.444 141.322 169.247 143.321C169.064 145.097 169.151 146.89 169.503 148.639C169.796 150.16 170.41 151.6 171.303 152.865C172.122 154.016 173.275 154.886 174.607 155.357L216.729 169.854C218.6 170.491 220.609 170.611 222.542 170.2C224.609 169.75 226.553 168.855 228.239 167.578C230.132 166.155 231.76 164.411 233.049 162.425C234.475 160.242 235.541 157.844 236.206 155.323L264.446 49.3601L265.332 49.2891L269.768 32.5632Z" fill="#2F2E41"/>
<path d="M266.721 31.3446L265.846 31.4583L271.712 9.44688C272.144 7.9771 272.214 6.42461 271.917 4.92177C271.659 3.69381 271.02 2.57829 270.092 1.7335C269.12 0.888826 267.929 0.336143 266.657 0.13922C265.106 -0.100782 263.524 -0.0299469 262.002 0.347605L222.134 9.42464C220.743 9.76217 219.411 10.31 218.185 11.0491C216.851 11.842 215.611 12.7821 214.487 13.852C213.331 14.9429 212.293 16.1527 211.391 17.4613C210.51 18.7279 209.792 20.1003 209.253 21.5461L167.54 136.25C166.847 138.136 166.396 140.103 166.2 142.103C166.017 143.878 166.103 145.671 166.455 147.421C166.749 148.941 167.363 150.381 168.256 151.647C169.074 152.797 170.228 153.667 171.559 154.138L213.682 168.636C215.553 169.273 217.561 169.392 219.495 168.982C221.562 168.532 223.506 167.637 225.192 166.359C227.085 164.937 228.713 163.193 230.001 161.206C231.428 159.024 232.494 156.626 233.159 154.105L261.398 48.1414L262.285 48.0704L266.721 31.3446Z" fill="#3F3D56"/>
<path d="M261.649 3.21964L255.789 4.50317C255.853 5.01008 255.802 5.52489 255.641 6.00971C255.459 6.5768 255.194 7.11404 254.855 7.6043C254.093 8.71731 253.076 9.6322 251.889 10.2728C251.747 10.3484 251.605 10.4181 251.464 10.4821C251.323 10.5461 251.182 10.6042 251.04 10.6564C250.9 10.7086 250.76 10.7547 250.621 10.7947C250.483 10.8347 250.345 10.8684 250.21 10.8958L227.297 15.5343C226.872 15.633 226.43 15.628 226.007 15.5197C225.666 15.4283 225.366 15.2262 225.154 14.9451C224.939 14.6433 224.818 14.2852 224.806 13.9153C224.788 13.4435 224.863 12.9727 225.025 12.5294C225.066 12.4098 225.112 12.2894 225.164 12.1681C225.216 12.0469 225.273 11.9256 225.334 11.8043C225.395 11.6825 225.462 11.5612 225.534 11.4406C225.606 11.3199 225.682 11.1994 225.762 11.0789L221.424 12.0292C220.379 12.2742 219.378 12.6791 218.457 13.2295C217.45 13.8224 216.514 14.5276 215.667 15.3317C214.793 16.1532 214.01 17.0654 213.329 18.0529C212.666 19.0072 212.127 20.0419 211.725 21.1321L170.09 136.833C169.573 138.255 169.24 139.737 169.101 141.244C168.973 142.574 169.049 143.916 169.326 145.223C169.557 146.353 170.028 147.419 170.708 148.35C171.332 149.195 172.201 149.827 173.197 150.159L215.629 163.941C217.029 164.39 218.524 164.457 219.958 164.135C221.486 163.785 222.921 163.112 224.167 162.161C225.56 161.106 226.759 159.818 227.711 158.353C228.765 156.744 229.555 154.977 230.054 153.119L268.823 10.087C269.149 8.99514 269.209 7.84149 268.999 6.7217C268.817 5.80405 268.353 4.96615 267.671 4.32494C266.957 3.68387 266.075 3.25901 265.129 3.0999C263.973 2.9058 262.789 2.94652 261.649 3.21964Z" fill="white"/>
<path d="M238.893 58.017H154.484V29.4199H238.893V58.017Z" fill="white"/>
<path d="M214.216 68.1101H131.489V108.202H214.216V68.1101Z" fill="white"/>
<path d="M144.929 87.3623C148.234 87.3623 150.913 84.6839 150.913 81.3798C150.913 78.0757 148.234 75.3973 144.929 75.3973C141.624 75.3973 138.945 78.0757 138.945 81.3798C138.945 84.6839 141.624 87.3623 144.929 87.3623Z" fill="#27BEDB"/>
<path d="M158.749 77.3914C158.484 77.3914 158.231 77.4965 158.044 77.6835C157.857 77.8705 157.751 78.1241 157.751 78.3885C157.751 78.653 157.857 78.9066 158.044 79.0936C158.231 79.2806 158.484 79.3856 158.749 79.3856H205.765C206.029 79.385 206.282 79.2796 206.469 79.0927C206.655 78.9058 206.76 78.6526 206.76 78.3885C206.76 78.1245 206.655 77.8713 206.469 77.6844C206.282 77.4974 206.029 77.3921 205.765 77.3914H158.749Z" fill="#E6E6E6"/>
<path d="M158.749 83.374C158.618 83.3735 158.488 83.3989 158.367 83.4487C158.245 83.4985 158.135 83.5716 158.042 83.6641C157.949 83.7565 157.875 83.8663 157.825 83.9872C157.774 84.1082 157.748 84.2379 157.748 84.3689C157.748 84.5 157.773 84.6298 157.823 84.751C157.873 84.8721 157.947 84.9823 158.039 85.0751C158.132 85.1679 158.242 85.2415 158.363 85.2918C158.484 85.3421 158.613 85.368 158.745 85.3681H178.98C179.111 85.3681 179.241 85.3424 179.362 85.2922C179.483 85.2421 179.593 85.1687 179.685 85.0761C179.778 84.9835 179.851 84.8736 179.901 84.7526C179.952 84.6317 179.977 84.502 179.977 84.3711C179.977 84.2401 179.952 84.1105 179.901 83.9895C179.851 83.8685 179.778 83.7586 179.685 83.666C179.593 83.5734 179.483 83.5 179.362 83.4499C179.241 83.3998 179.111 83.374 178.98 83.374H158.749Z" fill="#E6E6E6"/>
<path d="M140.339 92.9383C139.58 92.9383 138.963 93.3856 138.963 93.9354C138.963 94.4851 139.58 94.9325 140.339 94.9325H205.207C205.966 94.9325 206.583 94.4851 206.583 93.9354C206.583 93.3857 205.966 92.9383 205.207 92.9383H140.339Z" fill="#E6E6E6"/>
<path d="M140.339 98.9208C139.58 98.9208 138.963 99.3682 138.963 99.9179C138.963 100.468 139.58 100.915 140.339 100.915H190.275C191.034 100.915 191.651 100.468 191.651 99.9179C191.651 99.3682 191.034 98.9208 190.275 98.9208H140.339Z" fill="#E6E6E6"/>
<path d="M215.057 109.043H130.648V67.269H215.057V109.043ZM132.331 107.361H213.375V68.9512H132.331V107.361Z" fill="#E6E6E6"/>
<path d="M168.765 49.5132C172.07 49.5132 174.749 46.8348 174.749 43.5307C174.749 40.2266 172.07 37.5482 168.765 37.5482C165.46 37.5482 162.781 40.2266 162.781 43.5307C162.781 46.8348 165.46 49.5132 168.765 49.5132Z" fill="#27BEDB"/>
<path d="M182.585 39.5423C182.321 39.5423 182.067 39.6474 181.88 39.8344C181.693 40.0214 181.588 40.275 181.588 40.5394C181.588 40.8039 181.693 41.0575 181.88 41.2445C182.067 41.4315 182.321 41.5365 182.585 41.5365H229.602C229.866 41.5359 230.119 41.4305 230.305 41.2436C230.492 41.0567 230.597 40.8034 230.597 40.5394C230.597 40.2754 230.492 40.0222 230.305 39.8352C230.119 39.6483 229.866 39.543 229.602 39.5423H182.585Z" fill="#E6E6E6"/>
<path d="M182.585 45.5248C182.454 45.5244 182.324 45.5498 182.203 45.5996C182.082 45.6493 181.971 45.7225 181.879 45.8149C181.786 45.9074 181.712 46.0172 181.661 46.1381C181.611 46.2591 181.585 46.3888 181.584 46.5198C181.584 46.6509 181.61 46.7807 181.66 46.9019C181.71 47.023 181.783 47.1332 181.876 47.226C181.968 47.3188 182.078 47.3924 182.199 47.4427C182.32 47.493 182.45 47.5189 182.581 47.519H219.577C219.841 47.519 220.095 47.414 220.282 47.227C220.469 47.04 220.574 46.7864 220.574 46.5219C220.574 46.2575 220.469 46.0039 220.282 45.8169C220.095 45.6299 219.841 45.5248 219.577 45.5248H182.585Z" fill="#E6E6E6"/>
<path d="M238.893 58.017H154.484V29.4199H238.893V58.017ZM156.167 56.3348H237.211V31.1021H156.167V56.3348Z" fill="#E6E6E6"/>
<path d="M73.0395 166.95H77.2944L79.3188 150.541L73.0386 150.542L73.0395 166.95Z" fill="#FFB6B6"/>
<path d="M85.5005 170.9L72.1276 170.9L72.1273 165.735L80.9638 165.734C82.1669 165.734 83.3208 166.212 84.1716 167.062C85.0224 167.913 85.5004 169.067 85.5005 170.269L85.5005 170.9Z" fill="#2F2E41"/>
<path d="M30.4912 161.437L34.2199 163.486L43.9012 150.083L38.398 147.058L30.4912 161.437Z" fill="#FFB6B6"/>
<path d="M39.5073 170.9L27.7887 164.459L30.2779 159.932L38.0212 164.189C39.0755 164.768 39.8564 165.743 40.1921 166.898C40.5277 168.053 40.3906 169.294 39.811 170.348L39.5073 170.9Z" fill="#2F2E41"/>
<path d="M72.8406 157.842C72.4614 157.842 72.0953 157.704 71.8106 157.454C71.5259 157.203 71.342 156.858 71.2932 156.482L65.9718 115.485C65.9483 115.304 65.8681 115.135 65.7426 115.002C65.6171 114.869 65.4528 114.779 65.2731 114.745C65.0934 114.711 64.9076 114.734 64.7421 114.812C64.5766 114.89 64.4399 115.018 64.3516 115.178L42.1742 155.405C41.9912 155.734 41.6964 155.985 41.3433 156.115C40.9903 156.244 40.6025 156.243 40.2505 156.111L35.4164 154.27C35.222 154.196 35.0443 154.083 34.8939 153.94C34.7434 153.796 34.6231 153.624 34.5402 153.433C34.4572 153.242 34.4132 153.037 34.4108 152.829C34.4083 152.621 34.4474 152.414 34.5259 152.222L49.8887 114.491C49.9276 114.395 49.954 114.295 49.9672 114.192C52.048 98.0905 57.3422 89.9023 58.9153 87.7763C59.0302 87.62 59.1058 87.4385 59.1357 87.2468C59.1657 87.0552 59.1491 86.8592 59.0874 86.6754L58.8711 86.0268C58.7847 85.7694 58.767 85.4939 58.8197 85.2275C58.8725 84.9612 58.9938 84.7132 59.1717 84.508C64.8398 78.0534 74.7191 81.5755 74.8183 81.6118L74.8677 81.6301L74.8988 81.6724C85.9764 96.8611 81.8806 146.193 80.9471 155.929C80.9122 156.294 80.7491 156.636 80.4865 156.893C80.2239 157.15 79.8788 157.307 79.5123 157.334L72.9618 157.838C72.9212 157.841 72.8807 157.842 72.8406 157.842Z" fill="#2F2E41"/>
<path d="M69.8371 43.9283C75.067 43.9283 79.3066 39.6897 79.3066 34.461C79.3066 29.2324 75.067 24.9937 69.8371 24.9937C64.6073 24.9937 60.3677 29.2324 60.3677 34.461C60.3677 39.6897 64.6073 43.9283 69.8371 43.9283Z" fill="#FFB8B8"/>
<path d="M55.1968 94.7032L83.0612 97.2388C80.6319 88.7935 78.4062 80.3779 80.2204 71.9927C82.5242 64.5067 82.7384 60.3597 76.6609 56.8342L72.5575 47.6824L65.131 47.4124L61.5098 46.4201C58.5841 51.123 57.3874 56.6974 58.125 62.1863C59.6991 74.1223 59.274 85.1983 55.1968 94.7032Z" fill="#27BEDB"/>
<path d="M59.4267 52.4567L56.6239 39.5956C56.0391 36.5512 56.1858 33.4114 57.052 30.4348C57.1463 30.1298 57.26 29.831 57.3924 29.5405C58.1682 27.85 59.388 26.4016 60.9219 25.3493C62.4559 24.297 64.2465 23.6803 66.1032 23.5648C72.473 23.1249 73.4082 23.7962 73.6385 24.1274C77.2379 23.9821 80.0289 25.3724 81.3024 27.9452C81.4271 28.2005 81.4943 28.4801 81.4992 28.7643C81.5042 29.0484 81.4468 29.3302 81.331 29.5897C81.2152 29.8493 81.044 30.0803 80.8293 30.2666C80.6145 30.4528 80.3616 30.5897 80.0882 30.6676C78.3093 31.1804 75.809 31.75 73.9338 31.5825C70.1751 36.0899 71.7116 44.3483 75.5251 49.2688L75.6749 49.4622L71.8967 50.2363L67.506 44.1233C67.4191 44.0024 67.2934 43.9149 67.1497 43.8756C67.006 43.8362 66.8532 43.8473 66.7168 43.9071C66.5804 43.9668 66.4686 44.0716 66.4001 44.2039C66.3317 44.3361 66.3107 44.4879 66.3408 44.6337L67.6738 51.1081L59.4267 52.4567Z" fill="#2F2E41"/>
<path d="M264.226 171H0V170.336H264.346L264.226 171Z" fill="#CACACA"/>
<path d="M113.552 87.088L44.6343 135.813L28.1191 112.464L97.0371 63.7391L113.552 87.088Z" fill="white"/>
<path d="M51.3831 120.626C54.0814 118.718 54.722 114.985 52.8138 112.287C50.9057 109.59 47.1714 108.949 44.4731 110.857C41.7748 112.765 41.1342 116.498 43.0424 119.196C44.9505 121.893 48.6848 122.534 51.3831 120.626Z" fill="#27BEDB"/>
<path d="M56.9083 104.508C56.6924 104.66 56.5459 104.892 56.5012 105.153C56.4565 105.414 56.5171 105.681 56.6699 105.897C56.8226 106.113 57.0548 106.26 57.3155 106.304C57.5762 106.349 57.844 106.288 58.06 106.136L96.4478 78.9958C96.663 78.8428 96.8088 78.6107 96.8531 78.3504C96.8974 78.0902 96.8367 77.823 96.6842 77.6074C96.5318 77.3918 96.3 77.2455 96.0398 77.2006C95.7796 77.1556 95.5122 77.2157 95.2962 77.3675L56.9083 104.508Z" fill="#E6E6E6"/>
<path d="M60.3633 109.392C60.1473 109.545 60.0007 109.776 59.9555 110.037C59.9104 110.297 59.9706 110.565 60.1227 110.781C60.2749 110.997 60.5066 111.144 60.767 111.189C61.0274 111.235 61.2952 111.175 61.5115 111.023L61.5149 111.02L91.7176 89.6672C91.9336 89.5145 92.08 89.2823 92.1247 89.0217C92.1695 88.7611 92.1088 88.4933 91.9561 88.2774C91.8805 88.1705 91.7845 88.0795 91.6737 88.0097C91.5629 87.9399 91.4395 87.8925 91.3104 87.8704C91.0497 87.8257 90.7819 87.8863 90.566 88.039L60.3633 109.392Z" fill="#E6E6E6"/>
<path d="M113.552 87.088L44.6343 135.813L28.1191 112.464L97.0371 63.7391L113.552 87.088ZM45.0366 133.468L111.207 86.6858L96.6348 66.0839L30.4644 112.866L45.0366 133.468Z" fill="#E6E6E6"/>
<path d="M270.919 78.4373C271.164 78.4278 271.407 78.4693 271.635 78.5591C271.851 78.6456 272.047 78.7758 272.21 78.9415C272.374 79.1082 272.502 79.3067 272.586 79.5249C272.675 79.7562 272.715 80.0031 272.705 80.2506C272.695 80.5045 272.636 80.7541 272.531 80.9854C272.428 81.2124 272.285 81.4188 272.109 81.5948C271.934 81.7698 271.729 81.9114 271.503 82.0127C271.273 82.1156 271.026 82.1722 270.775 82.1791C270.53 82.1865 270.287 82.1428 270.06 82.0508C269.845 81.963 269.65 81.8318 269.488 81.6654C269.326 81.4982 269.199 81.2996 269.117 81.0817C269.029 80.8513 268.99 80.6055 269.001 80.3594C269.011 80.1067 269.07 79.8585 269.174 79.6282C269.276 79.4035 269.418 79.1989 269.592 79.0243C269.766 78.8496 269.97 78.7079 270.194 78.606C270.423 78.5027 270.669 78.4454 270.919 78.4373Z" fill="#F2F2F2"/>
<path d="M77.1593 102.189L72.6777 77.6949L72.9933 62.5472L62.8926 62.2317L64.7865 79.2728L71.3175 102.903C70.7754 103.562 70.4432 104.368 70.3638 105.217C70.2844 106.067 70.4614 106.92 70.872 107.668C71.2826 108.416 71.9079 109.023 72.6672 109.412C73.4265 109.801 74.2851 109.954 75.132 109.85C75.9789 109.747 76.7753 109.392 77.4185 108.831C78.0617 108.271 78.5221 107.531 78.7403 106.706C78.9585 105.881 78.9245 105.01 78.6427 104.205C78.3609 103.4 77.8442 102.698 77.1593 102.189H77.1593Z" fill="#FFB8B8"/>
<path d="M62.2612 63.8095C65.9208 62.416 69.965 62.416 73.6246 63.8095L72.9933 51.1865C72.9933 50.5234 72.8627 49.8668 72.6088 49.2543C72.355 48.6417 71.983 48.085 71.5141 47.6162C71.0451 47.1473 70.4883 46.7754 69.8756 46.5216C69.2629 46.2679 68.6061 46.1373 67.9429 46.1373C67.2797 46.1373 66.623 46.2679 66.0102 46.5216C65.3975 46.7754 64.8407 47.1473 64.3718 47.6162C63.9028 48.085 63.5308 48.6417 63.277 49.2543C63.0232 49.8668 62.8925 50.5234 62.8925 51.1865L62.2612 63.8095Z" fill="#27BEDB"/>
</g>
<defs>
<clipPath id="clip0_47_83">
<rect width="276" height="171" fill="white"/>
</clipPath>
</defs>
</svg>
