<svg width="382" height="270" viewBox="0 0 382 270" fill="none" xmlns="http://www.w3.org/2000/svg">
<g clip-path="url(#clip0_42_2)">
<rect width="400" height="270" fill="white"/>
<g clip-path="url(#clip1_42_2)">
<path d="M318.63 192.427L329.531 194.136C333.221 189.654 335.765 184.336 336.941 178.644C328.97 185.19 316.849 181.711 307.183 185.285C304.177 186.423 301.465 188.224 299.247 190.557C297.029 192.889 295.363 195.692 294.372 198.758L289.045 204.508C293.867 206.423 299.046 207.267 304.225 206.981C309.404 206.695 314.459 205.286 319.043 202.851C321.601 201.46 323.974 199.751 326.107 197.764C322.292 195.355 318.63 192.427 318.63 192.427Z" fill="#F2F2F2"/>
<path d="M314.76 174.937L325.277 171.589C326.587 165.927 326.5 160.029 325.022 154.408C320.798 163.833 308.402 166.143 301.339 173.666C299.154 176.029 297.528 178.855 296.58 181.935C295.632 185.015 295.387 188.269 295.863 191.456L293.651 198.986C298.819 198.543 303.829 196.981 308.337 194.408C312.845 191.835 316.744 188.312 319.764 184.082C321.435 181.692 322.799 179.101 323.825 176.369C319.34 175.919 314.76 174.937 314.76 174.937Z" fill="#F2F2F2"/>
<path d="M337 207.991C337 208.048 336.989 208.104 336.968 208.156C336.946 208.208 336.915 208.255 336.875 208.295C336.835 208.335 336.788 208.367 336.736 208.388C336.684 208.41 336.628 208.421 336.572 208.421H94.428C94.3145 208.421 94.2056 208.375 94.1254 208.295C94.0451 208.214 94 208.105 94 207.991C94 207.877 94.0451 207.768 94.1254 207.688C94.2056 207.607 94.3145 207.562 94.428 207.562H336.572C336.628 207.562 336.684 207.573 336.736 207.594C336.788 207.616 336.835 207.647 336.875 207.687C336.915 207.727 336.946 207.775 336.968 207.827C336.989 207.879 337 207.935 337 207.991Z" fill="#CCCCCC"/>
<path d="M194.339 189.688C237.044 189.688 271.663 154.958 271.663 112.118C271.663 69.2772 237.044 34.548 194.339 34.548C151.635 34.548 117.016 69.2772 117.016 112.118C117.016 154.958 151.635 189.688 194.339 189.688Z" fill="#E6E6E6"/>
<path d="M260.874 112.118C260.881 122.533 258.456 132.804 253.793 142.109C249.129 151.414 242.357 159.493 234.019 165.699C233.462 166.117 232.893 166.525 232.321 166.922C221.172 174.697 207.918 178.864 194.34 178.864C180.761 178.864 167.507 174.697 156.358 166.922C155.786 166.525 155.218 166.117 154.66 165.699C146.328 159.488 139.56 151.408 134.897 142.104C130.234 132.8 127.806 122.531 127.806 112.118C127.806 101.704 130.234 91.4353 134.897 82.1316C139.56 72.828 146.328 64.7477 154.66 58.5369C155.218 58.1184 155.786 57.7107 156.358 57.3138C167.507 49.5389 180.761 45.3717 194.34 45.3717C207.918 45.3717 221.172 49.5389 232.321 57.3138C232.893 57.7107 233.462 58.1184 234.019 58.5369C242.357 64.7423 249.129 72.8214 253.793 82.1263C258.456 91.4312 260.881 101.703 260.874 112.118Z" fill="white"/>
<path d="M194.34 173.091C227.907 173.091 255.119 145.792 255.119 112.118C255.119 78.443 227.907 51.1443 194.34 51.1443C160.772 51.1443 133.56 78.443 133.56 112.118C133.56 145.792 160.772 173.091 194.34 173.091Z" fill="#27BEDB"/>
<path opacity="0.2" d="M194.498 51.3147C193.577 51.3147 192.661 51.3389 191.75 51.3796C207.111 52.7338 221.386 59.8953 231.68 71.4133C241.975 82.9312 247.521 97.9443 247.193 113.411C246.866 128.878 240.691 143.641 229.918 154.71C219.145 165.78 204.581 172.327 189.176 173.026C190.93 173.179 192.704 173.262 194.498 173.262C210.618 173.262 226.077 166.838 237.476 155.403C248.874 143.968 255.278 128.459 255.278 112.288C255.278 96.117 248.874 80.6082 237.476 69.1734C226.077 57.7387 210.618 51.3147 194.498 51.3147V51.3147Z" fill="black"/>
<path d="M194.52 46.8148C193.995 46.8157 193.493 47.0251 193.122 47.397C192.751 47.769 192.542 48.2732 192.542 48.7992V57.4581C192.542 57.9844 192.75 58.4891 193.121 58.8613C193.492 59.2334 193.995 59.4425 194.52 59.4425C195.044 59.4425 195.547 59.2334 195.918 58.8613C196.289 58.4891 196.498 57.9844 196.498 57.4581V48.7992C196.497 48.2732 196.288 47.769 195.917 47.397C195.546 47.0251 195.044 46.8157 194.52 46.8148Z" fill="white"/>
<path d="M234.019 58.5368C233.462 58.1183 232.893 57.7106 232.321 57.3138C231.978 57.2913 231.635 57.3591 231.326 57.5103C231.017 57.6615 230.753 57.891 230.559 58.1761L225.7 65.3305C225.405 65.7654 225.294 66.3002 225.392 66.8171C225.49 67.334 225.788 67.7908 226.222 68.087C226.655 68.3831 227.188 68.4944 227.704 68.3963C228.219 68.2981 228.674 67.9987 228.97 67.5638L233.828 60.4093C234.013 60.1379 234.128 59.8244 234.161 59.4974C234.194 59.1704 234.145 58.8402 234.019 58.5368Z" fill="white"/>
<path d="M256.094 91.1594C255.996 90.9182 255.852 90.6987 255.67 90.5133C255.487 90.328 255.27 90.1806 255.031 90.0794C254.792 89.9782 254.536 89.9253 254.276 89.9236C254.016 89.922 253.759 89.9717 253.519 90.0698L245.52 93.3278C245.035 93.5262 244.648 93.9098 244.444 94.3944C244.24 94.879 244.237 95.4249 244.434 95.9122C244.631 96.3994 245.013 96.7881 245.496 96.9929C245.979 97.1977 246.523 97.2017 247.009 97.0042L255.008 93.7463C255.493 93.5469 255.88 93.1627 256.083 92.6779C256.287 92.193 256.291 91.6471 256.094 91.1594Z" fill="white"/>
<path d="M162.979 65.3305L158.12 58.1761C157.926 57.891 157.662 57.6615 157.353 57.5103C157.044 57.3591 156.701 57.2913 156.358 57.3138C155.786 57.7106 155.218 58.1183 154.66 58.5368C154.534 58.8402 154.485 59.1704 154.518 59.4974C154.552 59.8244 154.666 60.1379 154.851 60.4093L159.71 67.5638C160.005 67.9987 160.46 68.2982 160.976 68.3963C161.491 68.4944 162.024 68.3831 162.457 68.087C162.891 67.7908 163.189 67.334 163.287 66.8171C163.385 66.3002 163.274 65.7654 162.979 65.3305Z" fill="white"/>
<path d="M143.159 93.3278L135.16 90.0699C134.674 89.8719 134.13 89.8757 133.647 90.0804C133.164 90.2851 132.781 90.6739 132.584 91.1614C132.387 91.6488 132.39 92.195 132.594 92.6798C132.798 93.1645 133.186 93.5481 133.672 93.7463L141.67 97.0042C142.156 97.2017 142.7 97.1976 143.183 96.9929C143.666 96.7881 144.048 96.3994 144.245 95.9121C144.442 95.4249 144.439 94.879 144.235 94.3944C144.032 93.9098 143.644 93.5262 143.159 93.3278V93.3278Z" fill="white"/>
<path d="M194.52 164.793C193.995 164.794 193.493 165.003 193.122 165.375C192.751 165.747 192.542 166.251 192.542 166.777V175.436C192.542 175.963 192.75 176.467 193.121 176.84C193.492 177.212 193.995 177.421 194.52 177.421C195.044 177.421 195.547 177.212 195.918 176.84C196.289 176.467 196.498 175.963 196.498 175.436V166.777C196.497 166.251 196.288 165.747 195.917 165.375C195.546 165.003 195.044 164.794 194.52 164.793Z" fill="white"/>
<path d="M233.828 163.826L228.97 156.672C228.823 156.456 228.636 156.272 228.419 156.129C228.202 155.986 227.959 155.888 227.704 155.839C227.449 155.791 227.186 155.793 226.932 155.846C226.678 155.899 226.437 156.002 226.222 156.149C226.007 156.295 225.823 156.483 225.681 156.701C225.539 156.919 225.441 157.162 225.392 157.418C225.344 157.674 225.346 157.937 225.399 158.192C225.452 158.448 225.554 158.69 225.7 158.905L230.559 166.059C230.753 166.345 231.017 166.574 231.326 166.725C231.635 166.876 231.978 166.944 232.321 166.922C232.893 166.525 233.462 166.117 234.019 165.699C234.145 165.395 234.194 165.065 234.161 164.738C234.128 164.411 234.013 164.098 233.828 163.826Z" fill="white"/>
<path d="M255.008 130.489L247.009 127.231C246.523 127.033 245.979 127.037 245.496 127.242C245.012 127.446 244.63 127.835 244.433 128.323C244.235 128.81 244.239 129.356 244.443 129.841C244.647 130.326 245.034 130.71 245.52 130.908L253.519 134.166C254.004 134.363 254.549 134.359 255.031 134.154C255.514 133.949 255.896 133.561 256.094 133.074C256.291 132.586 256.288 132.04 256.084 131.556C255.88 131.071 255.493 130.688 255.008 130.489V130.489Z" fill="white"/>
<path d="M162.457 156.148C162.024 155.852 161.491 155.741 160.976 155.839C160.46 155.937 160.005 156.237 159.71 156.672L154.851 163.826C154.666 164.098 154.552 164.411 154.518 164.738C154.485 165.065 154.534 165.395 154.66 165.699C155.218 166.117 155.786 166.525 156.358 166.922C156.701 166.944 157.044 166.876 157.353 166.725C157.662 166.574 157.926 166.344 158.12 166.059L162.979 158.905C163.125 158.69 163.228 158.447 163.28 158.192C163.333 157.937 163.336 157.674 163.287 157.418C163.239 157.162 163.141 156.918 162.998 156.701C162.856 156.483 162.672 156.295 162.457 156.148Z" fill="white"/>
<path d="M144.245 128.321C144.147 128.08 144.003 127.86 143.821 127.675C143.639 127.489 143.422 127.342 143.183 127.241C142.944 127.14 142.687 127.087 142.427 127.085C142.168 127.083 141.91 127.133 141.67 127.231L133.672 130.489C133.186 130.688 132.799 131.071 132.595 131.556C132.392 132.04 132.388 132.586 132.585 133.074C132.783 133.561 133.165 133.949 133.648 134.154C134.131 134.359 134.675 134.363 135.161 134.166L143.159 130.908C143.644 130.708 144.031 130.324 144.235 129.839C144.438 129.354 144.442 128.808 144.245 128.321Z" fill="white"/>
<path d="M197.086 111.133C197.268 112.218 197.015 113.331 196.38 114.228C195.746 115.125 194.783 115.734 193.702 115.919L158.601 121.909C158.066 122 157.518 121.985 156.988 121.864C156.459 121.743 155.958 121.518 155.515 121.203C155.072 120.888 154.695 120.488 154.406 120.027C154.117 119.565 153.922 119.051 153.831 118.514C153.739 117.977 153.755 117.427 153.876 116.896C153.996 116.365 154.22 115.863 154.534 115.418C154.849 114.974 155.247 114.596 155.707 114.306C156.167 114.016 156.679 113.82 157.214 113.728L192.315 107.739C193.396 107.555 194.506 107.81 195.4 108.446C196.294 109.083 196.901 110.049 197.086 111.133Z" fill="#3F3D56"/>
<path d="M234.028 150.146C233.524 150.654 232.839 150.942 232.124 150.945C231.409 150.947 230.722 150.666 230.214 150.161L192.429 112.552C191.922 112.047 191.635 111.36 191.633 110.643C191.63 109.925 191.912 109.237 192.415 108.727C192.919 108.218 193.603 107.931 194.318 107.927C195.033 107.924 195.72 108.206 196.228 108.711L234.013 146.319C234.52 146.825 234.807 147.512 234.81 148.229C234.812 148.947 234.531 149.636 234.028 150.146Z" fill="#3F3D56"/>
<path d="M194.339 116.808C196.922 116.808 199.015 114.708 199.015 112.118C199.015 109.527 196.922 107.427 194.339 107.427C191.757 107.427 189.664 109.527 189.664 112.118C189.664 114.708 191.757 116.808 194.339 116.808Z" fill="#CCCCCC"/>
<path d="M162.136 30.7881C154.959 42.1069 144.009 49.6187 130.505 54.5534C130.238 54.7539 129.935 54.8997 129.612 54.9825C129.289 55.0653 128.953 55.0835 128.623 55.0359C128.293 54.9884 127.975 54.8762 127.688 54.7056C127.402 54.535 127.151 54.3094 126.951 54.0417C119.616 44.2165 121.272 30.1743 130.953 22.6667C133.294 20.8548 135.97 19.5273 138.826 18.7614C141.682 17.9954 144.661 17.8063 147.591 18.2049C150.521 18.6035 153.342 19.5819 155.892 21.0833C158.441 22.5847 160.668 24.5793 162.443 26.9512L162.646 27.2229C162.846 27.4906 162.991 27.7952 163.074 28.1192C163.156 28.4432 163.174 28.7804 163.127 29.1115C163.079 29.4425 162.968 29.761 162.798 30.0487C162.627 30.3363 162.403 30.5876 162.136 30.7881Z" fill="#E6E6E6"/>
<path d="M226.236 26.9511C228.011 24.5793 230.238 22.5847 232.787 21.0833C235.337 19.5819 238.158 18.6035 241.088 18.2049C244.017 17.8063 246.997 17.9954 249.853 18.7614C252.709 19.5273 255.385 20.8548 257.726 22.6667C267.407 30.1743 269.063 44.2165 261.728 54.0417C261.528 54.3094 261.277 54.535 260.991 54.7056C260.704 54.8762 260.386 54.9884 260.056 55.0359C259.726 55.0835 259.39 55.0653 259.067 54.9825C258.744 54.8997 258.441 54.7539 258.174 54.5534C245.638 49.7386 235.357 41.4065 226.543 30.7881C226.004 30.3831 225.648 29.7801 225.552 29.1115C225.456 28.4429 225.629 27.7635 226.033 27.2229L226.236 26.9511Z" fill="#E6E6E6"/>
<path d="M223.09 179.321C222.633 179.579 222.297 180.008 222.154 180.514C222.012 181.02 222.075 181.563 222.33 182.022L233.746 202.487C234.002 202.946 234.43 203.284 234.935 203.427C235.439 203.57 235.98 203.506 236.438 203.249C236.896 202.992 237.233 202.563 237.375 202.057C237.518 201.551 237.454 201.008 237.198 200.549L225.783 180.084C225.526 179.625 225.098 179.288 224.594 179.145C224.089 179.002 223.548 179.065 223.09 179.321Z" fill="#E6E6E6"/>
<path d="M162.896 180.084L151.481 200.549C151.225 201.008 151.161 201.551 151.304 202.057C151.446 202.563 151.783 202.992 152.241 203.249C152.699 203.506 153.24 203.57 153.744 203.427C154.249 203.284 154.677 202.946 154.933 202.487L166.349 182.022C166.476 181.795 166.557 181.544 166.587 181.286C166.618 181.027 166.597 180.764 166.526 180.514C166.456 180.263 166.337 180.028 166.176 179.824C166.015 179.619 165.815 179.448 165.589 179.321C165.362 179.194 165.113 179.113 164.855 179.082C164.597 179.051 164.335 179.072 164.085 179.143C163.835 179.214 163.601 179.334 163.397 179.495C163.193 179.656 163.023 179.857 162.896 180.084H162.896Z" fill="#E6E6E6"/>
<path d="M236.058 207.727C239.435 207.727 242.172 204.981 242.172 201.594C242.172 198.206 239.435 195.46 236.058 195.46C232.682 195.46 229.944 198.206 229.944 201.594C229.944 204.981 232.682 207.727 236.058 207.727Z" fill="#E6E6E6"/>
<path d="M240.374 50.7835C243.75 50.7835 246.488 48.0374 246.488 44.65C246.488 41.2626 243.75 38.5166 240.374 38.5166C236.997 38.5166 234.26 41.2626 234.26 44.65C234.26 48.0374 236.997 50.7835 240.374 50.7835Z" fill="#E6E6E6"/>
<path d="M193.98 36.3519C197.357 36.3519 200.094 33.6059 200.094 30.2185C200.094 26.8311 197.357 24.0851 193.98 24.0851C190.604 24.0851 187.866 26.8311 187.866 30.2185C187.866 33.6059 190.604 36.3519 193.98 36.3519Z" fill="#E6E6E6"/>
<path d="M149.744 50.0619C153.12 50.0619 155.858 47.3159 155.858 43.9285C155.858 40.5411 153.12 37.795 149.744 37.795C146.367 37.795 143.63 40.5411 143.63 43.9285C143.63 47.3159 146.367 50.0619 149.744 50.0619Z" fill="#E6E6E6"/>
<path d="M153.7 207.727C157.076 207.727 159.814 204.981 159.814 201.594C159.814 198.206 157.076 195.46 153.7 195.46C150.323 195.46 147.586 198.206 147.586 201.594C147.586 204.981 150.323 207.727 153.7 207.727Z" fill="#E6E6E6"/>
<path d="M231.262 146.696C231.503 147.075 231.824 147.396 232.202 147.636C232.58 147.877 233.006 148.032 233.45 148.089C233.894 148.147 234.346 148.106 234.772 147.97C235.199 147.834 235.591 147.606 235.92 147.301L245.514 152.458L244.999 146.808L235.968 142.777C235.421 142.256 234.703 141.954 233.95 141.929C233.196 141.904 232.46 142.157 231.88 142.64C231.3 143.123 230.917 143.803 230.803 144.55C230.689 145.298 230.853 146.061 231.262 146.696H231.262Z" fill="#FFB7B7"/>
<path d="M238.252 148.668L242.012 143.462L260.124 152.051L282.661 147.809C283.775 147.599 284.922 147.638 286.019 147.923C287.116 148.208 288.138 148.731 289.011 149.457C289.884 150.182 290.587 151.091 291.07 152.12C291.553 153.148 291.805 154.271 291.807 155.408C291.809 157.462 290.998 159.432 289.553 160.887C288.108 162.342 286.147 163.163 284.1 163.169L258.271 163.217L238.252 148.668Z" fill="#3F3D56"/>
<path d="M232.462 238.587L228.658 236.762L233.883 220.812L239.497 223.506L232.462 238.587Z" fill="#FFB7B7"/>
<path d="M257.963 236.015C257.686 236.189 257.41 236.36 257.13 236.531C256.574 236.873 256.013 237.209 255.451 237.54C255.169 237.705 254.884 237.871 254.602 238.033V238.042L254.585 238.044L254.579 238.047L254.149 238.154L253.532 236.517L253.247 235.763L252.844 234.695L252.107 232.741L248.223 222.455L254.261 220.961L254.487 221.889H254.49L254.602 222.348L256.711 230.931L257.141 232.685L257.155 232.739L257.415 233.787L257.639 234.695L257.887 235.71L257.963 236.015Z" fill="#FFB7B7"/>
<path d="M293.981 199.891C293.598 200.508 293.207 201.122 292.813 201.73C292.081 202.862 291.329 203.978 290.558 205.076C290.558 205.079 290.555 205.079 290.552 205.082C290.102 205.5 289.605 205.864 289.072 206.167C289.049 206.184 289.024 206.195 289.002 206.209C288.608 206.427 288.19 206.595 287.756 206.711C287.599 206.75 287.44 206.789 287.283 206.828C286.719 206.963 286.16 207.078 285.604 207.179C284.615 207.355 283.637 207.481 282.665 207.56C282.587 207.568 282.509 207.574 282.43 207.579C278.432 207.874 274.54 207.4 270.478 206.624C268.472 206.242 266.424 205.786 264.303 205.312C263.61 205.155 262.914 205.001 262.21 204.847C262.157 204.835 262.101 204.821 262.045 204.81C261.04 204.589 260.017 204.37 258.969 204.154C257.651 203.882 256.29 203.619 254.876 203.369L254.977 205.368C255.06 206.905 255.379 208.421 255.921 209.861C256.525 211.632 257.002 213.034 255.994 215.952L255.508 217.364C255.76 218.066 255.846 218.816 255.76 219.557C255.674 220.298 255.419 221.008 255.013 221.633L254.915 221.782L258.969 232.071L259.232 232.738H257.156L254.602 232.741H250.274L244.03 220.173L243.731 219.573V219.542L244.376 195.39C244.385 195.177 244.402 194.961 244.429 194.748C244.543 193.779 244.848 192.844 245.326 191.995C245.805 191.146 246.447 190.401 247.215 189.804C247.951 189.226 248.795 188.802 249.696 188.554C250.597 188.307 251.538 188.242 252.465 188.363L254.602 188.64L258.969 189.207L262.045 189.607L262.107 189.616L271.179 190.793L271.83 188.13L271.95 188.085L275.769 186.681L288.979 181.824L289.013 181.813L289.882 181.493L289.985 181.661C290.016 181.712 290.047 181.762 290.075 181.813C290.933 183.357 291.633 184.986 292.162 186.673C293.051 189.429 293.783 192.233 294.355 195.073C294.38 195.196 294.402 195.308 294.422 195.409L294.43 195.44C294.439 195.488 294.444 195.519 294.447 195.527C294.752 196.8 294.539 198.352 293.981 199.891Z" fill="#2F2E41"/>
<path d="M294.538 190.99C294.496 190.811 294.443 190.629 294.387 190.452C293.944 189.115 293.427 187.803 292.839 186.522C292.18 185.065 291.389 183.504 290.448 181.814C289.992 180.995 289.503 180.144 288.978 179.26C288.716 178.817 288.443 178.366 288.16 177.906C288.149 177.885 288.136 177.865 288.123 177.845L288.042 177.71L274.972 179.465L270.105 180.118L269.814 182.551L269.745 183.153C269.742 183.153 269.742 183.153 269.745 183.156L269.549 184.799V184.801L269.289 186.971L269.267 186.968L262.044 186.029L254.601 185.062L250.603 184.544C249.676 184.423 248.735 184.488 247.834 184.735C246.933 184.982 246.089 185.407 245.353 185.984C244.585 186.582 243.943 187.327 243.465 188.176C242.987 189.024 242.682 189.96 242.568 190.929C242.542 191.125 242.526 191.327 242.517 191.526L238.745 200.492C236.488 205.854 235.051 211.528 234.482 217.32L231.716 226.192L232.11 226.228L237.972 226.775L239.519 226.92L242.928 221.928C243.316 221.359 243.685 220.774 244.029 220.174C244.595 219.194 245.098 218.179 245.535 217.136L252.908 199.533C253.478 199.632 254.042 199.725 254.601 199.814C257.186 200.234 259.667 200.577 262.044 200.842C269.775 201.708 276.47 201.776 282.429 201.041C284.103 200.837 285.72 200.568 287.282 200.234C287.855 200.114 288.42 199.984 288.978 199.845C289.11 199.814 289.238 199.783 289.367 199.749C290.521 199.451 291.583 198.866 292.454 198.049C293.325 197.232 293.979 196.21 294.354 195.074C294.802 193.758 294.866 192.341 294.538 190.99Z" fill="#2F2E41"/>
<path d="M233.677 235.982L229.562 234.003L228.917 233.692L227.886 236.232L220.688 237.821C220.332 237.899 220.011 238.089 219.77 238.364C219.53 238.639 219.384 238.983 219.352 239.347C219.321 239.712 219.407 240.076 219.597 240.388C219.787 240.7 220.072 240.942 220.409 241.081L227.441 243.959L229.674 241.944L229.126 244.649L231.775 245.733L234.678 236.464L233.677 235.982Z" fill="#2F2E41"/>
<path d="M258.969 232.071L259.232 232.738H258.969V232.071Z" fill="#2F2E41"/>
<path d="M257.536 232.881L253.224 234.38L252.547 234.614L253.596 237.146L249.596 243.356C249.398 243.663 249.303 244.025 249.325 244.39C249.347 244.754 249.484 245.103 249.718 245.384C249.951 245.664 250.267 245.863 250.621 245.95C250.975 246.038 251.347 246.009 251.684 245.869L258.7 242.951L258.873 239.943L260.381 242.252L263.023 241.153L258.585 232.517L257.536 232.881Z" fill="#2F2E41"/>
<path d="M293.463 195.051C293.207 195.051 292.955 194.988 292.728 194.868L269.972 182.94L269.709 181.86L269.213 178.442L269.22 178.41L271.384 168.401C271.345 168.315 271.262 168.174 271.168 168.015C270.202 166.373 267.262 161.374 272.873 154.492L282.726 142.969L291.182 142.604L291.278 142.726C293.539 145.573 295.064 148.936 295.718 152.517C296.371 156.098 296.132 159.785 295.022 163.25L294.142 179.203L295.086 182.425C295.638 184.319 295.547 186.342 294.827 188.178L295.043 193.394C295.052 193.608 295.017 193.822 294.942 194.022C294.866 194.222 294.751 194.405 294.604 194.559C294.456 194.714 294.279 194.837 294.083 194.922C293.887 195.006 293.676 195.05 293.463 195.051L293.463 195.051Z" fill="#3F3D56"/>
<path d="M273.723 208.208C274.109 207.979 274.44 207.669 274.693 207.298C274.946 206.927 275.114 206.506 275.187 206.063C275.26 205.619 275.235 205.166 275.115 204.733C274.994 204.3 274.78 203.9 274.488 203.559L279.959 194.12L274.312 194.439L269.982 203.354C269.444 203.884 269.119 204.593 269.068 205.348C269.016 206.102 269.243 206.849 269.704 207.448C270.165 208.046 270.829 208.454 271.57 208.594C272.31 208.734 273.077 208.597 273.723 208.208L273.723 208.208Z" fill="#FFB7B7"/>
<path d="M275.931 201.268L270.875 197.318L280.062 179.458L276.62 156.715C276.45 155.59 276.528 154.442 276.85 153.352C277.172 152.262 277.729 151.256 278.482 150.406C279.235 149.556 280.165 148.883 281.207 148.434C282.248 147.985 283.376 147.772 284.508 147.809C286.555 147.879 288.489 148.761 289.889 150.26C291.288 151.759 292.037 153.754 291.972 155.807L291.121 181.703L275.931 201.268Z" fill="#3F3D56"/>
<path d="M277.302 138.181V129.786C277.3 126.803 278.479 123.941 280.581 121.83C282.682 119.719 285.533 118.533 288.507 118.531C291.481 118.529 294.334 119.712 296.438 121.82C298.542 123.928 299.725 126.789 299.727 129.772V129.786C301.703 133.917 300.467 135.882 299.727 138.181C299.726 138.581 299.567 138.965 299.285 139.248C299.003 139.531 298.621 139.69 298.221 139.691H278.808C278.409 139.69 278.026 139.531 277.744 139.248C277.461 138.965 277.302 138.581 277.302 138.181Z" fill="#2F2E41"/>
<path d="M284.838 139.145C289.474 139.145 293.231 135.376 293.231 130.726C293.231 126.075 289.474 122.306 284.838 122.306C280.203 122.306 276.445 126.075 276.445 130.726C276.445 135.376 280.203 139.145 284.838 139.145Z" fill="#FFB7B7"/>
<path d="M293.622 132.933C293.546 132.921 293.47 132.905 293.393 132.893C292.084 132.66 290.775 132.431 289.47 132.194L289.35 129.226L287.768 131.885C284.161 133.086 280.786 132.407 277.611 130.909C276.564 130.41 275.548 129.848 274.568 129.226C274.835 127.584 275.464 126.023 276.41 124.657C277.355 123.291 278.593 122.154 280.033 121.33C280.153 121.261 280.27 121.201 280.39 121.141C280.39 121.141 280.391 121.141 280.391 121.14C280.392 121.14 280.392 121.14 280.392 121.14C280.393 121.139 280.393 121.139 280.393 121.138C280.394 121.138 280.394 121.137 280.394 121.137C280.598 121.04 280.806 120.948 281.014 120.864C282.644 120.225 284.421 120.063 286.139 120.397C287.857 120.731 289.445 121.548 290.719 122.751C293.281 125.205 294.434 129.258 293.622 132.933Z" fill="#2F2E41"/>
</g>
<path d="M116.434 255.277V258.807C116.303 258.98 116.098 259.171 115.818 259.378C115.543 259.581 115.177 259.757 114.72 259.905C114.263 260.053 113.694 260.127 113.013 260.127C112.433 260.127 111.902 260.03 111.419 259.835C110.937 259.636 110.52 259.346 110.169 258.965C109.822 258.584 109.553 258.121 109.363 257.575C109.172 257.025 109.077 256.399 109.077 255.696V255.055C109.077 254.357 109.164 253.735 109.337 253.189C109.515 252.639 109.769 252.173 110.099 251.792C110.429 251.412 110.827 251.124 111.292 250.929C111.762 250.73 112.293 250.631 112.886 250.631C113.643 250.631 114.27 250.758 114.765 251.012C115.264 251.261 115.649 251.608 115.92 252.053C116.191 252.497 116.362 253.005 116.434 253.576H114.873C114.822 253.255 114.722 252.967 114.574 252.713C114.43 252.459 114.223 252.26 113.952 252.116C113.686 251.968 113.339 251.894 112.911 251.894C112.543 251.894 112.219 251.964 111.94 252.104C111.661 252.243 111.428 252.448 111.242 252.719C111.06 252.99 110.922 253.32 110.829 253.709C110.736 254.099 110.689 254.543 110.689 255.042V255.696C110.689 256.204 110.742 256.655 110.848 257.048C110.958 257.442 111.115 257.774 111.318 258.045C111.525 258.316 111.777 258.521 112.073 258.661C112.369 258.796 112.704 258.864 113.076 258.864C113.44 258.864 113.738 258.834 113.971 258.775C114.204 258.711 114.388 258.637 114.523 258.553C114.663 258.464 114.771 258.379 114.847 258.299V256.464H112.924V255.277H116.434ZM121.918 258.623V255.347C121.918 255.102 121.874 254.89 121.785 254.712C121.696 254.535 121.561 254.397 121.379 254.3C121.201 254.202 120.977 254.154 120.706 254.154C120.456 254.154 120.241 254.196 120.059 254.281C119.877 254.365 119.735 254.48 119.633 254.624C119.532 254.767 119.481 254.93 119.481 255.112H117.958C117.958 254.841 118.023 254.579 118.154 254.325C118.285 254.071 118.476 253.845 118.726 253.646C118.975 253.447 119.274 253.291 119.621 253.176C119.968 253.062 120.357 253.005 120.789 253.005C121.305 253.005 121.762 253.092 122.16 253.265C122.562 253.439 122.877 253.701 123.105 254.052C123.338 254.399 123.455 254.835 123.455 255.36V258.413C123.455 258.726 123.476 259.008 123.518 259.257C123.565 259.503 123.63 259.716 123.715 259.898V260H122.147C122.075 259.835 122.018 259.625 121.976 259.372C121.938 259.113 121.918 258.864 121.918 258.623ZM122.141 255.823L122.153 256.769H121.055C120.772 256.769 120.522 256.797 120.306 256.852C120.09 256.902 119.91 256.979 119.767 257.08C119.623 257.182 119.515 257.304 119.443 257.448C119.371 257.592 119.335 257.755 119.335 257.937C119.335 258.119 119.377 258.286 119.462 258.438C119.547 258.587 119.669 258.703 119.83 258.788C119.995 258.872 120.194 258.915 120.427 258.915C120.74 258.915 121.013 258.851 121.246 258.724C121.483 258.593 121.669 258.434 121.804 258.248C121.94 258.058 122.012 257.878 122.02 257.708L122.515 258.388C122.464 258.561 122.378 258.747 122.255 258.946C122.132 259.145 121.971 259.336 121.772 259.518C121.578 259.695 121.343 259.841 121.068 259.956C120.797 260.07 120.484 260.127 120.128 260.127C119.68 260.127 119.28 260.038 118.929 259.86C118.577 259.678 118.302 259.435 118.104 259.13C117.905 258.821 117.805 258.472 117.805 258.083C117.805 257.719 117.873 257.397 118.008 257.118C118.148 256.835 118.351 256.598 118.618 256.407C118.889 256.217 119.219 256.073 119.608 255.976C119.997 255.874 120.442 255.823 120.941 255.823H122.141ZM129.453 253.132H130.843V259.81C130.843 260.427 130.712 260.952 130.45 261.384C130.187 261.815 129.821 262.143 129.352 262.368C128.882 262.596 128.338 262.71 127.72 262.71C127.458 262.71 127.166 262.672 126.844 262.596C126.527 262.52 126.218 262.397 125.917 262.228C125.621 262.063 125.374 261.845 125.175 261.574L125.892 260.673C126.138 260.965 126.408 261.179 126.705 261.314C127.001 261.449 127.312 261.517 127.638 261.517C127.989 261.517 128.287 261.451 128.533 261.32C128.782 261.193 128.975 261.005 129.11 260.755C129.246 260.506 129.313 260.201 129.313 259.841V254.687L129.453 253.132ZM124.788 256.642V256.509C124.788 255.988 124.851 255.514 124.978 255.087C125.105 254.655 125.287 254.285 125.524 253.976C125.761 253.663 126.049 253.424 126.387 253.259C126.726 253.09 127.109 253.005 127.536 253.005C127.98 253.005 128.359 253.085 128.672 253.246C128.99 253.407 129.254 253.638 129.466 253.938C129.677 254.234 129.842 254.59 129.961 255.004C130.084 255.415 130.175 255.872 130.234 256.375V256.801C130.179 257.292 130.086 257.74 129.955 258.146C129.823 258.553 129.65 258.904 129.434 259.2C129.218 259.496 128.952 259.725 128.634 259.886C128.321 260.047 127.951 260.127 127.523 260.127C127.104 260.127 126.726 260.04 126.387 259.867C126.053 259.693 125.765 259.45 125.524 259.137C125.287 258.824 125.105 258.455 124.978 258.032C124.851 257.605 124.788 257.141 124.788 256.642ZM126.317 256.509V256.642C126.317 256.955 126.347 257.247 126.406 257.518C126.47 257.789 126.565 258.028 126.692 258.235C126.823 258.438 126.988 258.599 127.187 258.718C127.39 258.832 127.629 258.889 127.904 258.889C128.264 258.889 128.558 258.813 128.787 258.661C129.019 258.508 129.197 258.303 129.32 258.045C129.447 257.783 129.536 257.491 129.586 257.169V256.02C129.561 255.77 129.508 255.538 129.428 255.322C129.352 255.106 129.248 254.918 129.117 254.757C128.986 254.592 128.82 254.465 128.622 254.376C128.423 254.283 128.188 254.236 127.917 254.236C127.642 254.236 127.403 254.296 127.2 254.414C126.997 254.533 126.829 254.695 126.698 254.903C126.571 255.11 126.476 255.351 126.413 255.626C126.349 255.902 126.317 256.196 126.317 256.509ZM133.947 254.598V260H132.417V253.132H133.858L133.947 254.598ZM133.674 256.312L133.179 256.306C133.183 255.819 133.251 255.373 133.382 254.966C133.518 254.56 133.704 254.211 133.941 253.919C134.182 253.627 134.47 253.403 134.804 253.246C135.139 253.085 135.511 253.005 135.921 253.005C136.251 253.005 136.55 253.051 136.816 253.145C137.087 253.233 137.318 253.379 137.508 253.583C137.703 253.786 137.851 254.05 137.953 254.376C138.054 254.698 138.105 255.093 138.105 255.563V260H136.569V255.557C136.569 255.227 136.52 254.966 136.423 254.776C136.33 254.581 136.192 254.444 136.01 254.363C135.833 254.279 135.61 254.236 135.344 254.236C135.081 254.236 134.847 254.291 134.639 254.401C134.432 254.511 134.256 254.662 134.112 254.852C133.973 255.042 133.865 255.263 133.789 255.512C133.712 255.762 133.674 256.028 133.674 256.312ZM142.694 260.127C142.187 260.127 141.727 260.044 141.317 259.879C140.911 259.71 140.564 259.475 140.276 259.175C139.992 258.874 139.774 258.521 139.622 258.115C139.47 257.708 139.394 257.271 139.394 256.801V256.547C139.394 256.009 139.472 255.523 139.628 255.087C139.785 254.651 140.003 254.279 140.282 253.97C140.562 253.657 140.892 253.417 141.272 253.252C141.653 253.087 142.066 253.005 142.51 253.005C143.001 253.005 143.431 253.087 143.799 253.252C144.167 253.417 144.472 253.65 144.713 253.951C144.958 254.247 145.14 254.6 145.259 255.011C145.382 255.421 145.443 255.874 145.443 256.369V257.023H140.136V255.925H143.932V255.804C143.924 255.529 143.869 255.271 143.767 255.03C143.67 254.789 143.52 254.594 143.316 254.446C143.113 254.298 142.842 254.224 142.504 254.224C142.25 254.224 142.024 254.279 141.825 254.389C141.63 254.494 141.467 254.649 141.336 254.852C141.205 255.055 141.103 255.301 141.031 255.588C140.964 255.872 140.93 256.191 140.93 256.547V256.801C140.93 257.101 140.97 257.381 141.05 257.639C141.135 257.893 141.258 258.115 141.418 258.305C141.579 258.496 141.774 258.646 142.002 258.756C142.231 258.862 142.491 258.915 142.783 258.915C143.151 258.915 143.479 258.84 143.767 258.692C144.055 258.544 144.305 258.335 144.516 258.064L145.322 258.845C145.174 259.061 144.982 259.268 144.745 259.467C144.508 259.661 144.218 259.82 143.875 259.943C143.536 260.066 143.143 260.127 142.694 260.127ZM148.172 254.439V260H146.643V253.132H148.103L148.172 254.439ZM150.273 253.087L150.261 254.509C150.168 254.492 150.066 254.48 149.956 254.471C149.85 254.463 149.744 254.458 149.639 254.458C149.376 254.458 149.146 254.497 148.947 254.573C148.748 254.645 148.581 254.75 148.445 254.89C148.314 255.026 148.213 255.191 148.141 255.385C148.069 255.58 148.026 255.798 148.014 256.039L147.665 256.064C147.665 255.633 147.707 255.233 147.792 254.865C147.876 254.497 148.003 254.173 148.172 253.894C148.346 253.614 148.562 253.396 148.82 253.24C149.082 253.083 149.385 253.005 149.728 253.005C149.821 253.005 149.92 253.013 150.026 253.03C150.136 253.047 150.218 253.066 150.273 253.087ZM158.659 258.578V250.25H160.195V260H158.805L158.659 258.578ZM154.19 256.642V256.509C154.19 255.988 154.251 255.514 154.374 255.087C154.497 254.655 154.674 254.285 154.907 253.976C155.14 253.663 155.424 253.424 155.758 253.259C156.092 253.09 156.469 253.005 156.888 253.005C157.302 253.005 157.666 253.085 157.979 253.246C158.293 253.407 158.559 253.638 158.779 253.938C158.999 254.234 159.175 254.59 159.306 255.004C159.437 255.415 159.53 255.872 159.585 256.375V256.801C159.53 257.292 159.437 257.74 159.306 258.146C159.175 258.553 158.999 258.904 158.779 259.2C158.559 259.496 158.291 259.725 157.973 259.886C157.66 260.047 157.294 260.127 156.875 260.127C156.46 260.127 156.086 260.04 155.751 259.867C155.421 259.693 155.14 259.45 154.907 259.137C154.674 258.824 154.497 258.455 154.374 258.032C154.251 257.605 154.19 257.141 154.19 256.642ZM155.72 256.509V256.642C155.72 256.955 155.747 257.247 155.802 257.518C155.861 257.789 155.952 258.028 156.075 258.235C156.198 258.438 156.357 258.599 156.551 258.718C156.75 258.832 156.987 258.889 157.262 258.889C157.609 258.889 157.895 258.813 158.119 258.661C158.343 258.508 158.519 258.303 158.646 258.045C158.777 257.783 158.866 257.491 158.913 257.169V256.02C158.887 255.77 158.834 255.538 158.754 255.322C158.678 255.106 158.574 254.918 158.443 254.757C158.312 254.592 158.149 254.465 157.954 254.376C157.764 254.283 157.537 254.236 157.275 254.236C156.996 254.236 156.759 254.296 156.564 254.414C156.369 254.533 156.208 254.695 156.082 254.903C155.959 255.11 155.868 255.351 155.809 255.626C155.749 255.902 155.72 256.196 155.72 256.509ZM165.927 258.381V253.132H167.463V260H166.016L165.927 258.381ZM166.143 256.953L166.657 256.94C166.657 257.402 166.606 257.827 166.504 258.216C166.403 258.601 166.246 258.938 166.035 259.226C165.823 259.509 165.552 259.731 165.222 259.892C164.892 260.049 164.496 260.127 164.035 260.127C163.701 260.127 163.394 260.078 163.115 259.981C162.835 259.884 162.594 259.733 162.391 259.53C162.192 259.327 162.038 259.063 161.928 258.737C161.818 258.411 161.763 258.022 161.763 257.569V253.132H163.292V257.582C163.292 257.831 163.322 258.041 163.381 258.21C163.441 258.375 163.521 258.508 163.623 258.61C163.724 258.711 163.843 258.783 163.978 258.826C164.113 258.868 164.257 258.889 164.41 258.889C164.846 258.889 165.188 258.805 165.438 258.635C165.692 258.462 165.872 258.229 165.978 257.937C166.088 257.645 166.143 257.317 166.143 256.953ZM175.417 253.132V254.249H171.544V253.132H175.417ZM172.662 251.45H174.191V258.102C174.191 258.314 174.221 258.477 174.28 258.591C174.344 258.701 174.431 258.775 174.541 258.813C174.651 258.851 174.78 258.87 174.928 258.87C175.034 258.87 175.135 258.864 175.232 258.851C175.33 258.838 175.408 258.826 175.467 258.813L175.474 259.981C175.347 260.019 175.199 260.053 175.029 260.083C174.864 260.112 174.674 260.127 174.458 260.127C174.107 260.127 173.796 260.066 173.525 259.943C173.254 259.816 173.042 259.611 172.89 259.327C172.738 259.044 172.662 258.667 172.662 258.197V251.45ZM179.625 260.127C179.117 260.127 178.658 260.044 178.248 259.879C177.841 259.71 177.494 259.475 177.207 259.175C176.923 258.874 176.705 258.521 176.553 258.115C176.4 257.708 176.324 257.271 176.324 256.801V256.547C176.324 256.009 176.403 255.523 176.559 255.087C176.716 254.651 176.934 254.279 177.213 253.97C177.492 253.657 177.822 253.417 178.203 253.252C178.584 253.087 178.997 253.005 179.441 253.005C179.932 253.005 180.361 253.087 180.729 253.252C181.098 253.417 181.402 253.65 181.644 253.951C181.889 254.247 182.071 254.6 182.189 255.011C182.312 255.421 182.374 255.874 182.374 256.369V257.023H177.067V255.925H180.863V255.804C180.854 255.529 180.799 255.271 180.698 255.03C180.6 254.789 180.45 254.594 180.247 254.446C180.044 254.298 179.773 254.224 179.435 254.224C179.181 254.224 178.954 254.279 178.755 254.389C178.561 254.494 178.398 254.649 178.267 254.852C178.135 255.055 178.034 255.301 177.962 255.588C177.894 255.872 177.86 256.191 177.86 256.547V256.801C177.86 257.101 177.901 257.381 177.981 257.639C178.066 257.893 178.188 258.115 178.349 258.305C178.51 258.496 178.705 258.646 178.933 258.756C179.162 258.862 179.422 258.915 179.714 258.915C180.082 258.915 180.41 258.84 180.698 258.692C180.986 258.544 181.235 258.335 181.447 258.064L182.253 258.845C182.105 259.061 181.912 259.268 181.675 259.467C181.438 259.661 181.148 259.82 180.806 259.943C180.467 260.066 180.074 260.127 179.625 260.127ZM185.097 254.528V260H183.567V253.132H185.008L185.097 254.528ZM184.849 256.312L184.329 256.306C184.329 255.832 184.388 255.394 184.506 254.992C184.625 254.59 184.798 254.241 185.027 253.944C185.255 253.644 185.539 253.413 185.877 253.252C186.22 253.087 186.616 253.005 187.064 253.005C187.378 253.005 187.663 253.051 187.921 253.145C188.184 253.233 188.41 253.375 188.601 253.57C188.795 253.764 188.943 254.014 189.045 254.319C189.151 254.624 189.204 254.992 189.204 255.423V260H187.674V255.557C187.674 255.222 187.623 254.96 187.521 254.77C187.424 254.579 187.282 254.444 187.096 254.363C186.914 254.279 186.696 254.236 186.442 254.236C186.155 254.236 185.909 254.291 185.706 254.401C185.507 254.511 185.344 254.662 185.217 254.852C185.09 255.042 184.997 255.263 184.938 255.512C184.879 255.762 184.849 256.028 184.849 256.312ZM189.108 255.906L188.391 256.064C188.391 255.65 188.448 255.258 188.562 254.89C188.681 254.518 188.852 254.192 189.077 253.913C189.305 253.629 189.587 253.407 189.921 253.246C190.255 253.085 190.638 253.005 191.07 253.005C191.421 253.005 191.734 253.054 192.009 253.151C192.289 253.244 192.526 253.392 192.72 253.595C192.915 253.798 193.063 254.063 193.165 254.389C193.266 254.71 193.317 255.1 193.317 255.557V260H191.781V255.55C191.781 255.203 191.73 254.935 191.628 254.744C191.531 254.554 191.391 254.423 191.209 254.351C191.028 254.274 190.81 254.236 190.556 254.236C190.319 254.236 190.109 254.281 189.927 254.37C189.75 254.454 189.599 254.575 189.477 254.731C189.354 254.884 189.261 255.059 189.197 255.258C189.138 255.457 189.108 255.673 189.108 255.906ZM196.427 254.452V262.641H194.897V253.132H196.307L196.427 254.452ZM200.902 256.502V256.636C200.902 257.135 200.843 257.598 200.725 258.026C200.61 258.449 200.439 258.819 200.21 259.137C199.986 259.45 199.709 259.693 199.379 259.867C199.049 260.04 198.668 260.127 198.236 260.127C197.809 260.127 197.434 260.049 197.113 259.892C196.795 259.731 196.527 259.505 196.307 259.213C196.087 258.921 195.909 258.578 195.773 258.185C195.642 257.787 195.549 257.351 195.494 256.877V256.363C195.549 255.859 195.642 255.402 195.773 254.992C195.909 254.581 196.087 254.228 196.307 253.932C196.527 253.635 196.795 253.407 197.113 253.246C197.43 253.085 197.8 253.005 198.224 253.005C198.655 253.005 199.038 253.09 199.373 253.259C199.707 253.424 199.988 253.661 200.217 253.97C200.445 254.274 200.617 254.643 200.731 255.074C200.845 255.502 200.902 255.978 200.902 256.502ZM199.373 256.636V256.502C199.373 256.185 199.343 255.891 199.284 255.62C199.224 255.345 199.131 255.104 199.004 254.896C198.877 254.689 198.715 254.528 198.516 254.414C198.321 254.296 198.086 254.236 197.811 254.236C197.54 254.236 197.307 254.283 197.113 254.376C196.918 254.465 196.755 254.59 196.624 254.75C196.493 254.911 196.391 255.1 196.319 255.315C196.247 255.527 196.197 255.758 196.167 256.007V257.239C196.218 257.543 196.305 257.823 196.427 258.077C196.55 258.331 196.723 258.534 196.948 258.686C197.176 258.834 197.468 258.908 197.824 258.908C198.099 258.908 198.334 258.849 198.528 258.73C198.723 258.612 198.882 258.449 199.004 258.242C199.131 258.03 199.224 257.787 199.284 257.512C199.343 257.237 199.373 256.945 199.373 256.636ZM206.057 258.14C206.057 257.988 206.019 257.85 205.942 257.728C205.866 257.601 205.72 257.486 205.504 257.385C205.293 257.283 204.98 257.19 204.565 257.105C204.201 257.025 203.867 256.93 203.562 256.82C203.262 256.706 203.003 256.568 202.788 256.407C202.572 256.246 202.405 256.056 202.286 255.836C202.168 255.616 202.108 255.362 202.108 255.074C202.108 254.795 202.17 254.53 202.292 254.281C202.415 254.031 202.591 253.811 202.819 253.621C203.048 253.43 203.325 253.28 203.651 253.17C203.981 253.06 204.349 253.005 204.755 253.005C205.331 253.005 205.824 253.102 206.234 253.297C206.649 253.487 206.966 253.748 207.187 254.078C207.407 254.403 207.517 254.772 207.517 255.182H205.987C205.987 255 205.94 254.831 205.847 254.674C205.758 254.514 205.623 254.384 205.441 254.287C205.259 254.186 205.03 254.135 204.755 254.135C204.493 254.135 204.275 254.177 204.102 254.262C203.932 254.342 203.805 254.448 203.721 254.579C203.64 254.71 203.6 254.854 203.6 255.011C203.6 255.125 203.621 255.229 203.664 255.322C203.71 255.411 203.786 255.493 203.892 255.569C203.998 255.641 204.142 255.709 204.324 255.772C204.51 255.836 204.743 255.897 205.022 255.957C205.547 256.067 205.997 256.208 206.374 256.382C206.755 256.551 207.047 256.771 207.25 257.042C207.453 257.309 207.555 257.647 207.555 258.058C207.555 258.362 207.489 258.642 207.358 258.896C207.231 259.145 207.045 259.363 206.799 259.549C206.554 259.731 206.26 259.873 205.917 259.975C205.578 260.076 205.198 260.127 204.774 260.127C204.152 260.127 203.625 260.017 203.194 259.797C202.762 259.573 202.434 259.287 202.21 258.94C201.99 258.589 201.88 258.225 201.88 257.848H203.359C203.376 258.132 203.454 258.358 203.594 258.527C203.738 258.692 203.915 258.813 204.127 258.889C204.343 258.961 204.565 258.997 204.793 258.997C205.069 258.997 205.299 258.961 205.485 258.889C205.672 258.813 205.813 258.711 205.911 258.584C206.008 258.453 206.057 258.305 206.057 258.14ZM215.159 260.127C214.651 260.127 214.192 260.044 213.782 259.879C213.375 259.71 213.028 259.475 212.741 259.175C212.457 258.874 212.239 258.521 212.087 258.115C211.935 257.708 211.858 257.271 211.858 256.801V256.547C211.858 256.009 211.937 255.523 212.093 255.087C212.25 254.651 212.468 254.279 212.747 253.97C213.026 253.657 213.356 253.417 213.737 253.252C214.118 253.087 214.531 253.005 214.975 253.005C215.466 253.005 215.896 253.087 216.264 253.252C216.632 253.417 216.937 253.65 217.178 253.951C217.423 254.247 217.605 254.6 217.724 255.011C217.846 255.421 217.908 255.874 217.908 256.369V257.023H212.601V255.925H216.397V255.804C216.389 255.529 216.333 255.271 216.232 255.03C216.135 254.789 215.984 254.594 215.781 254.446C215.578 254.298 215.307 254.224 214.969 254.224C214.715 254.224 214.488 254.279 214.29 254.389C214.095 254.494 213.932 254.649 213.801 254.852C213.67 255.055 213.568 255.301 213.496 255.588C213.428 255.872 213.395 256.191 213.395 256.547V256.801C213.395 257.101 213.435 257.381 213.515 257.639C213.6 257.893 213.722 258.115 213.883 258.305C214.044 258.496 214.239 258.646 214.467 258.756C214.696 258.862 214.956 258.915 215.248 258.915C215.616 258.915 215.944 258.84 216.232 258.692C216.52 258.544 216.769 258.335 216.981 258.064L217.787 258.845C217.639 259.061 217.446 259.268 217.209 259.467C216.972 259.661 216.683 259.82 216.34 259.943C216.001 260.066 215.608 260.127 215.159 260.127ZM222.25 253.132V254.249H218.377V253.132H222.25ZM219.495 251.45H221.024V258.102C221.024 258.314 221.054 258.477 221.113 258.591C221.177 258.701 221.264 258.775 221.374 258.813C221.484 258.851 221.613 258.87 221.761 258.87C221.867 258.87 221.968 258.864 222.065 258.851C222.163 258.838 222.241 258.826 222.3 258.813L222.307 259.981C222.18 260.019 222.032 260.053 221.862 260.083C221.697 260.112 221.507 260.127 221.291 260.127C220.94 260.127 220.629 260.066 220.358 259.943C220.087 259.816 219.875 259.611 219.723 259.327C219.571 259.044 219.495 258.667 219.495 258.197V251.45ZM230.857 258.578V250.25H232.393V260H231.003L230.857 258.578ZM226.388 256.642V256.509C226.388 255.988 226.45 255.514 226.572 255.087C226.695 254.655 226.873 254.285 227.105 253.976C227.338 253.663 227.622 253.424 227.956 253.259C228.29 253.09 228.667 253.005 229.086 253.005C229.501 253.005 229.865 253.085 230.178 253.246C230.491 253.407 230.757 253.638 230.978 253.938C231.198 254.234 231.373 254.59 231.504 255.004C231.636 255.415 231.729 255.872 231.784 256.375V256.801C231.729 257.292 231.636 257.74 231.504 258.146C231.373 258.553 231.198 258.904 230.978 259.2C230.757 259.496 230.489 259.725 230.171 259.886C229.858 260.047 229.492 260.127 229.073 260.127C228.659 260.127 228.284 260.04 227.95 259.867C227.62 259.693 227.338 259.45 227.105 259.137C226.873 258.824 226.695 258.455 226.572 258.032C226.45 257.605 226.388 257.141 226.388 256.642ZM227.918 256.509V256.642C227.918 256.955 227.945 257.247 228 257.518C228.06 257.789 228.151 258.028 228.273 258.235C228.396 258.438 228.555 258.599 228.75 258.718C228.948 258.832 229.185 258.889 229.46 258.889C229.807 258.889 230.093 258.813 230.317 258.661C230.542 258.508 230.717 258.303 230.844 258.045C230.975 257.783 231.064 257.491 231.111 257.169V256.02C231.085 255.77 231.033 255.538 230.952 255.322C230.876 255.106 230.772 254.918 230.641 254.757C230.51 254.592 230.347 254.465 230.152 254.376C229.962 254.283 229.736 254.236 229.473 254.236C229.194 254.236 228.957 254.296 228.762 254.414C228.568 254.533 228.407 254.695 228.28 254.903C228.157 255.11 228.066 255.351 228.007 255.626C227.948 255.902 227.918 256.196 227.918 256.509ZM237.021 260.127C236.513 260.127 236.054 260.044 235.643 259.879C235.237 259.71 234.89 259.475 234.602 259.175C234.319 258.874 234.101 258.521 233.948 258.115C233.796 257.708 233.72 257.271 233.72 256.801V256.547C233.72 256.009 233.798 255.523 233.955 255.087C234.111 254.651 234.329 254.279 234.608 253.97C234.888 253.657 235.218 253.417 235.599 253.252C235.979 253.087 236.392 253.005 236.836 253.005C237.327 253.005 237.757 253.087 238.125 253.252C238.493 253.417 238.798 253.65 239.039 253.951C239.285 254.247 239.466 254.6 239.585 255.011C239.708 255.421 239.769 255.874 239.769 256.369V257.023H234.462V255.925H238.258V255.804C238.25 255.529 238.195 255.271 238.093 255.03C237.996 254.789 237.846 254.594 237.643 254.446C237.439 254.298 237.169 254.224 236.83 254.224C236.576 254.224 236.35 254.279 236.151 254.389C235.956 254.494 235.793 254.649 235.662 254.852C235.531 255.055 235.429 255.301 235.357 255.588C235.29 255.872 235.256 256.191 235.256 256.547V256.801C235.256 257.101 235.296 257.381 235.376 257.639C235.461 257.893 235.584 258.115 235.745 258.305C235.905 258.496 236.1 258.646 236.329 258.756C236.557 258.862 236.817 258.915 237.109 258.915C237.478 258.915 237.806 258.84 238.093 258.692C238.381 258.544 238.631 258.335 238.842 258.064L239.648 258.845C239.5 259.061 239.308 259.268 239.071 259.467C238.834 259.661 238.544 259.82 238.201 259.943C237.863 260.066 237.469 260.127 237.021 260.127ZM245.837 250.25V260H244.301V250.25H245.837ZM248.967 250.25V251.145C248.967 251.412 248.918 251.689 248.821 251.977C248.728 252.26 248.597 252.533 248.427 252.795C248.258 253.054 248.063 253.278 247.843 253.468L247.075 252.986C247.249 252.723 247.388 252.446 247.494 252.154C247.604 251.858 247.659 251.526 247.659 251.158V250.25H248.967ZM253.874 258.623V255.347C253.874 255.102 253.829 254.89 253.74 254.712C253.651 254.535 253.516 254.397 253.334 254.3C253.156 254.202 252.932 254.154 252.661 254.154C252.411 254.154 252.196 254.196 252.014 254.281C251.832 254.365 251.69 254.48 251.588 254.624C251.487 254.767 251.436 254.93 251.436 255.112H249.913C249.913 254.841 249.978 254.579 250.109 254.325C250.241 254.071 250.431 253.845 250.681 253.646C250.93 253.447 251.229 253.291 251.576 253.176C251.923 253.062 252.312 253.005 252.744 253.005C253.26 253.005 253.717 253.092 254.115 253.265C254.517 253.439 254.832 253.701 255.061 254.052C255.293 254.399 255.41 254.835 255.41 255.36V258.413C255.41 258.726 255.431 259.008 255.473 259.257C255.52 259.503 255.585 259.716 255.67 259.898V260H254.102C254.03 259.835 253.973 259.625 253.931 259.372C253.893 259.113 253.874 258.864 253.874 258.623ZM254.096 255.823L254.108 256.769H253.01C252.727 256.769 252.477 256.797 252.261 256.852C252.045 256.902 251.866 256.979 251.722 257.08C251.578 257.182 251.47 257.304 251.398 257.448C251.326 257.592 251.29 257.755 251.29 257.937C251.29 258.119 251.332 258.286 251.417 258.438C251.502 258.587 251.624 258.703 251.785 258.788C251.95 258.872 252.149 258.915 252.382 258.915C252.695 258.915 252.968 258.851 253.201 258.724C253.438 258.593 253.624 258.434 253.759 258.248C253.895 258.058 253.967 257.878 253.975 257.708L254.47 258.388C254.419 258.561 254.333 258.747 254.21 258.946C254.087 259.145 253.926 259.336 253.728 259.518C253.533 259.695 253.298 259.841 253.023 259.956C252.752 260.07 252.439 260.127 252.083 260.127C251.635 260.127 251.235 260.038 250.884 259.86C250.533 259.678 250.257 259.435 250.059 259.13C249.86 258.821 249.76 258.472 249.76 258.083C249.76 257.719 249.828 257.397 249.963 257.118C250.103 256.835 250.306 256.598 250.573 256.407C250.844 256.217 251.174 256.073 251.563 255.976C251.952 255.874 252.397 255.823 252.896 255.823H254.096ZM258.545 254.439V260H257.016V253.132H258.476L258.545 254.439ZM260.646 253.087L260.634 254.509C260.541 254.492 260.439 254.48 260.329 254.471C260.223 254.463 260.118 254.458 260.012 254.458C259.749 254.458 259.519 254.497 259.32 254.573C259.121 254.645 258.954 254.75 258.818 254.89C258.687 255.026 258.586 255.191 258.514 255.385C258.442 255.58 258.399 255.798 258.387 256.039L258.038 256.064C258.038 255.633 258.08 255.233 258.165 254.865C258.249 254.497 258.376 254.173 258.545 253.894C258.719 253.614 258.935 253.396 259.193 253.24C259.455 253.083 259.758 253.005 260.101 253.005C260.194 253.005 260.293 253.013 260.399 253.03C260.509 253.047 260.591 253.066 260.646 253.087ZM265.877 253.132H267.267V259.81C267.267 260.427 267.136 260.952 266.874 261.384C266.611 261.815 266.245 262.143 265.775 262.368C265.306 262.596 264.762 262.71 264.144 262.71C263.882 262.71 263.59 262.672 263.268 262.596C262.951 262.52 262.642 262.397 262.341 262.228C262.045 262.063 261.798 261.845 261.599 261.574L262.316 260.673C262.561 260.965 262.832 261.179 263.128 261.314C263.425 261.449 263.736 261.517 264.062 261.517C264.413 261.517 264.711 261.451 264.957 261.32C265.206 261.193 265.399 261.005 265.534 260.755C265.67 260.506 265.737 260.201 265.737 259.841V254.687L265.877 253.132ZM261.211 256.642V256.509C261.211 255.988 261.275 255.514 261.402 255.087C261.529 254.655 261.711 254.285 261.948 253.976C262.185 253.663 262.472 253.424 262.811 253.259C263.15 253.09 263.533 253.005 263.96 253.005C264.404 253.005 264.783 253.085 265.096 253.246C265.414 253.407 265.678 253.638 265.89 253.938C266.101 254.234 266.266 254.59 266.385 255.004C266.507 255.415 266.598 255.872 266.658 256.375V256.801C266.603 257.292 266.51 257.74 266.378 258.146C266.247 258.553 266.074 258.904 265.858 259.2C265.642 259.496 265.375 259.725 265.058 259.886C264.745 260.047 264.375 260.127 263.947 260.127C263.528 260.127 263.15 260.04 262.811 259.867C262.477 259.693 262.189 259.45 261.948 259.137C261.711 258.824 261.529 258.455 261.402 258.032C261.275 257.605 261.211 257.141 261.211 256.642ZM262.741 256.509V256.642C262.741 256.955 262.771 257.247 262.83 257.518C262.894 257.789 262.989 258.028 263.116 258.235C263.247 258.438 263.412 258.599 263.611 258.718C263.814 258.832 264.053 258.889 264.328 258.889C264.688 258.889 264.982 258.813 265.21 258.661C265.443 258.508 265.621 258.303 265.744 258.045C265.871 257.783 265.959 257.491 266.01 257.169V256.02C265.985 255.77 265.932 255.538 265.852 255.322C265.775 255.106 265.672 254.918 265.541 254.757C265.409 254.592 265.244 254.465 265.045 254.376C264.847 254.283 264.612 254.236 264.341 254.236C264.066 254.236 263.827 254.296 263.624 254.414C263.42 254.533 263.253 254.695 263.122 254.903C262.995 255.11 262.9 255.351 262.836 255.626C262.773 255.902 262.741 256.196 262.741 256.509ZM271.882 260.127C271.374 260.127 270.915 260.044 270.504 259.879C270.098 259.71 269.751 259.475 269.463 259.175C269.18 258.874 268.962 258.521 268.81 258.115C268.657 257.708 268.581 257.271 268.581 256.801V256.547C268.581 256.009 268.659 255.523 268.816 255.087C268.972 254.651 269.19 254.279 269.47 253.97C269.749 253.657 270.079 253.417 270.46 253.252C270.841 253.087 271.253 253.005 271.698 253.005C272.189 253.005 272.618 253.087 272.986 253.252C273.354 253.417 273.659 253.65 273.9 253.951C274.146 254.247 274.328 254.6 274.446 255.011C274.569 255.421 274.63 255.874 274.63 256.369V257.023H269.324V255.925H273.12V255.804C273.111 255.529 273.056 255.271 272.955 255.03C272.857 254.789 272.707 254.594 272.504 254.446C272.301 254.298 272.03 254.224 271.691 254.224C271.438 254.224 271.211 254.279 271.012 254.389C270.818 254.494 270.655 254.649 270.523 254.852C270.392 255.055 270.291 255.301 270.219 255.588C270.151 255.872 270.117 256.191 270.117 256.547V256.801C270.117 257.101 270.157 257.381 270.238 257.639C270.322 257.893 270.445 258.115 270.606 258.305C270.767 258.496 270.961 258.646 271.19 258.756C271.418 258.862 271.679 258.915 271.971 258.915C272.339 258.915 272.667 258.84 272.955 258.692C273.242 258.544 273.492 258.335 273.704 258.064L274.51 258.845C274.362 259.061 274.169 259.268 273.932 259.467C273.695 259.661 273.405 259.82 273.062 259.943C272.724 260.066 272.33 260.127 271.882 260.127ZM277.341 254.598V260H275.811V253.132H277.252L277.341 254.598ZM277.068 256.312L276.573 256.306C276.577 255.819 276.645 255.373 276.776 254.966C276.911 254.56 277.097 254.211 277.334 253.919C277.576 253.627 277.863 253.403 278.198 253.246C278.532 253.085 278.904 253.005 279.315 253.005C279.645 253.005 279.943 253.051 280.21 253.145C280.481 253.233 280.711 253.379 280.902 253.583C281.097 253.786 281.245 254.05 281.346 254.376C281.448 254.698 281.499 255.093 281.499 255.563V260H279.962V255.557C279.962 255.227 279.914 254.966 279.816 254.776C279.723 254.581 279.586 254.444 279.404 254.363C279.226 254.279 279.004 254.236 278.737 254.236C278.475 254.236 278.24 254.291 278.033 254.401C277.825 254.511 277.65 254.662 277.506 254.852C277.366 255.042 277.258 255.263 277.182 255.512C277.106 255.762 277.068 256.028 277.068 256.312ZM286.208 253.132V254.249H282.336V253.132H286.208ZM283.454 251.45H284.983V258.102C284.983 258.314 285.013 258.477 285.072 258.591C285.136 258.701 285.222 258.775 285.333 258.813C285.443 258.851 285.572 258.87 285.72 258.87C285.826 258.87 285.927 258.864 286.024 258.851C286.122 258.838 286.2 258.826 286.259 258.813L286.266 259.981C286.139 260.019 285.991 260.053 285.821 260.083C285.656 260.112 285.466 260.127 285.25 260.127C284.899 260.127 284.588 260.066 284.317 259.943C284.046 259.816 283.834 259.611 283.682 259.327C283.53 259.044 283.454 258.667 283.454 258.197V251.45Z" fill="#434343"/>
</g>
<defs>
<clipPath id="clip0_42_2">
<rect width="382" height="270" fill="white"/>
</clipPath>
<clipPath id="clip1_42_2">
<rect width="243" height="228" fill="white" transform="translate(94 18)"/>
</clipPath>
</defs>
</svg>
