<svg id="Calque_1" data-name="Calque 1" xmlns="http://www.w3.org/2000/svg" viewBox="0 0 429.5 241.93"><defs><style>.cls-1{font-size:49.77px;font-family:ComicNeue-Italic, Comic Neue;font-style:italic;letter-spacing:0.01em;}.cls-1,.cls-2,.cls-6{fill:#fff;}.cls-2{font-size:66.36px;font-family:ComicNeue-Bold, Comic Neue;font-weight:700;}.cls-3{letter-spacing:-0.02em;}.cls-4,.cls-5{fill:none;stroke-miterlimit:10;}.cls-4{stroke:#fff;stroke-width:1.93px;}.cls-5{stroke:#1d1d1b;stroke-width:0.92px;}.cls-7{fill:#fab710;}</style></defs><text class="cls-1" transform="translate(69.41 108.77)">E-Service</text><text class="cls-2" transform="translate(191.35 165.8)">san<tspan class="cls-3" x="97.95" y="0">t</tspan><tspan x="118.12" y="0">é</tspan></text><polygon class="cls-4" points="346.24 88.37 350.27 88.37 350.27 84.45 355.32 84.45 355.32 88.37 359.27 88.37 359.27 93.58 355.35 93.58 355.35 97.43 350.25 97.43 350.25 93.5 346.24 93.5 346.24 88.37"/><path class="cls-5" d="M295.91,90.64s4.62,9.3,18.07,9.66,18.93-9.63,18.93-9.63"/><path class="cls-6" d="M314.63,81.07c-1.91,0-3.83,0-5.74,0-.64,0-.77.25-.67.78.06.35.13.71.21,1.06a1.82,1.82,0,0,0,1.27,1.55,6.12,6.12,0,0,1,2.76,2.07,4.06,4.06,0,0,1,.58,3.6,1,1,0,0,1-1,.79.62.62,0,0,1-.63-.49.89.89,0,0,1,.35-1.09c.61-.38.48-.86.29-1.35a5.06,5.06,0,0,0-3.36-2.87,1,1,0,0,0-1.15.29,4.86,4.86,0,0,0-1.43,3.72c.06.52.16.94.8,1a.91.91,0,0,1,.79.93.61.61,0,0,1-.52.67A1.12,1.12,0,0,1,306,91.2a4.87,4.87,0,0,1,.9-6.49.7.7,0,0,0,.25-.91,9,9,0,0,1-.53-2.18c0-.28-.08-.57-.49-.55-1.88.07-3.78-.21-5.64.21A6.35,6.35,0,0,0,295.85,87a31.59,31.59,0,0,0,.06,3.64,2.13,2.13,0,0,0,.48,1.19,22.27,22.27,0,0,0,15.33,8.33c8.4.85,15.25-2.15,20.68-8.6.92-1.09.59-2.22.62-3.34a7,7,0,0,0-2.77-6.1,5.31,5.31,0,0,0-3.18-1c-1.32,0-2.64,0-4,0-.48,0-.64.16-.62.63a10.83,10.83,0,0,1-.7,4.1,1.07,1.07,0,0,0,.16,1,2,2,0,0,1-.2,2.64,2.19,2.19,0,0,1-2.47.59,2.22,2.22,0,0,1,.46-4.26.71.71,0,0,0,.71-.54,13.5,13.5,0,0,0,.64-3.5c0-.55-.19-.71-.72-.7C318.46,81.08,316.54,81.07,314.63,81.07Z"/><path class="cls-6" d="M315,79.74c4.63.14,9.5-4.25,9.47-9.31,0-5.29-5.41-10.05-9.88-9.89-4.69.16-9.39,4.95-9.38,9.84S310.08,79.75,315,79.74Z"/><rect class="cls-7" x="193.07" y="169.2" width="167.02" height="2.74" rx="0.71"/><rect class="cls-7" x="357.35" y="119.3" width="2.74" height="52.64" rx="0.95"/><path class="cls-7" d="M352.66,124.09a6,6,0,0,1-1.56-.62c-.37-.27-.83-.46-1.17-.76-1.62-1.45-3.21-2.92-4.81-4.39q-3.92-3.57-7.81-7.16a5.74,5.74,0,0,1-1.51-1.56s-.05,0-.08-.08c-.17.19-.21,0-.29-.09a2,2,0,0,1-.31-.27l-1.94-1.81c-.93.73-1.52.73-2.28,0-1.15-1-2.29-2.09-3.43-3.15a.35.35,0,0,0-.47-.07,28.73,28.73,0,0,1-20.1,1.67,26.21,26.21,0,0,1-13.16-8.44,22.76,22.76,0,0,1-4.86-9.76,22.37,22.37,0,0,1-.33-8,22.11,22.11,0,0,1,2.23-7.12A24.21,24.21,0,0,1,296,65.65a1.33,1.33,0,0,1,1.36-.33,1.19,1.19,0,0,1,.49,2.1,20.47,20.47,0,0,0-6.8,17.09,19.65,19.65,0,0,0,3.11,9.11,23.2,23.2,0,0,0,11.46,9.2,25.37,25.37,0,0,0,11.3,1.54,24.91,24.91,0,0,0,10.33-3.19,22.51,22.51,0,0,0,8.17-7.83,19.73,19.73,0,0,0,2.7-14.14,20.73,20.73,0,0,0-6.58-11.8,1.18,1.18,0,0,1-.05-1.79,1.44,1.44,0,0,1,2,.06A23.93,23.93,0,0,1,338.94,73a22.22,22.22,0,0,1,2.15,11.4,21.86,21.86,0,0,1-1.8,7.3c-.38.85-.82,1.68-1.26,2.58.08.06.2.13.31.22Q340,96,341.71,97.57a1.17,1.17,0,0,1,.47,1.2,5,5,0,0,1-.49.89l1.1,1q7.75,7.11,15.51,14.22a5,5,0,0,1,1.64,5.1,5.58,5.58,0,0,1-3.62,3.91s0,0-.06,0c-.24-.07-.39.09-.55.2Zm-17.59-18.44,1.92,1.76,11.75,10.76c1,.91,2,1.83,3,2.72a3.48,3.48,0,0,0,3.39.76,2.92,2.92,0,0,0,2.25-2.35,2.71,2.71,0,0,0-.89-2.64L349.25,110l-9.17-8.4a4,4,0,0,1-.29-.31ZM332,104.9l6.91-6.33-2.38-2.17a25.51,25.51,0,0,1-6.91,6.31Z"/></svg>